<?xml version="1.0" encoding="UTF-8" standalone="no"?>
<!-- Created with Inkscape (http://www.inkscape.org/) -->

<svg
   xmlns:dc="http://purl.org/dc/elements/1.1/"
   xmlns:cc="http://creativecommons.org/ns#"
   xmlns:rdf="http://www.w3.org/1999/02/22-rdf-syntax-ns#"
   xmlns:svg="http://www.w3.org/2000/svg"
   xmlns="http://www.w3.org/2000/svg"
   xmlns:sodipodi="http://sodipodi.sourceforge.net/DTD/sodipodi-0.dtd"
   xmlns:inkscape="http://www.inkscape.org/namespaces/inkscape"
   width="200.32738mm"
   height="275.33105mm"
   viewBox="0 0 200.32738 275.33105"
   version="1.1"
   id="svg2735"
   inkscape:version="0.92.3 (2405546, 2018-03-11)"
   sodipodi:docname="background.svg">
  <defs
     id="defs2729" />
  <sodipodi:namedview
     id="base"
     pagecolor="#ffffff"
     bordercolor="#666666"
     borderopacity="1.0"
     inkscape:pageopacity="0.0"
     inkscape:pageshadow="2"
     inkscape:zoom="0.35"
     inkscape:cx="385.7143"
     inkscape:cy="498.54984"
     inkscape:document-units="mm"
     inkscape:current-layer="layer1"
     showgrid="false"
     inkscape:window-width="1920"
     inkscape:window-height="1017"
     inkscape:window-x="-8"
     inkscape:window-y="-8"
     inkscape:window-maximized="1" />
  <metadata
     id="metadata2732">
    <rdf:RDF>
      <cc:Work
         rdf:about="">
        <dc:format>image/svg+xml</dc:format>
        <dc:type
           rdf:resource="http://purl.org/dc/dcmitype/StillImage" />
        <dc:title />
      </cc:Work>
    </rdf:RDF>
  </metadata>
  <g
     inkscape:label="Layer 1"
     inkscape:groupmode="layer"
     id="layer1"
     transform="translate(-3.7797575,-5.4102449)">
    <g
       transform="matrix(1.1129299,0,0,-1.1129299,202.95637,270.51126)"
       id="g32">
      <path
         inkscape:connector-curvature="0"
         id="path34"
         style="fill:#dedfdf;fill-opacity:1;fill-rule:nonzero;stroke:none"
         d="m 0,0 c 0.25,1.405 0.438,3.713 -0.306,6.146 l 1.34,4.978 V 1.503 C 0.755,1.057 0.415,0.547 0,0 m 1.034,217.885 v 9.62 c -0.278,0.445 -0.619,0.953 -1.033,1.499 0.25,-1.406 0.436,-3.711 -0.307,-6.14 z m -180,9.62 v -9.62 l 1.34,4.979 c -0.742,2.429 -0.557,4.734 -0.307,6.14 -0.414,-0.546 -0.754,-1.054 -1.033,-1.499 M -10.403,-6.551 h -62.241 c -0.134,-0.241 -0.383,-0.412 -0.68,-0.412 -0.434,0 -0.787,0.354 -0.787,0.787 0,0.436 0.353,0.789 0.787,0.789 0.297,0 0.547,-0.171 0.681,-0.414 h 62.24 c 4.464,0 7.675,2.565 9.7,4.932 0.255,0.988 0.847,3.906 -0.101,6.935 l -0.022,0.07 0.019,0.07 1.841,6.841 v 202.914 l -1.86,6.913 0.022,0.069 c 0.945,3.021 0.36,5.934 0.103,6.929 -2.026,2.368 -5.24,4.937 -9.702,4.937 h -62.241 c -0.134,-0.242 -0.383,-0.413 -0.68,-0.413 -0.434,0 -0.787,0.354 -0.787,0.788 0,0.435 0.353,0.789 0.787,0.789 0.297,0 0.547,-0.171 0.681,-0.414 h 62.24 c 5.729,0 9.502,-3.955 11.437,-6.704 v 1.89 c -1.828,1.984 -6.122,5.945 -12.25,7.456 l -155.508,-0.002 c -6.127,-1.512 -10.416,-5.469 -12.242,-7.453 v -1.891 c 1.936,2.749 5.708,6.704 11.438,6.704 h 62.239 c 0.135,0.243 0.385,0.414 0.682,0.414 0.433,0 0.787,-0.354 0.787,-0.789 0,-0.434 -0.354,-0.788 -0.787,-0.788 -0.297,0 -0.545,0.171 -0.68,0.413 h -62.241 c -4.462,0 -7.677,-2.569 -9.702,-4.937 -0.257,-0.995 -0.842,-3.908 0.102,-6.929 l 0.023,-0.069 -0.02,-0.07 -1.841,-6.843 V 13.048 l 1.861,-6.912 -0.023,-0.07 c -0.945,-3.022 -0.357,-5.936 -0.102,-6.93 2.025,-2.368 5.24,-4.937 9.702,-4.937 h 62.239 c 0.135,0.243 0.385,0.414 0.682,0.414 0.433,0 0.787,-0.353 0.787,-0.789 0,-0.433 -0.354,-0.787 -0.787,-0.787 -0.297,0 -0.545,0.171 -0.68,0.412 h -62.241 c -5.73,0 -9.502,3.956 -11.438,6.704 v -1.89 c 1.828,-1.985 6.123,-5.946 12.254,-7.455 l 155.501,0.002 c 6.128,1.51 10.419,5.467 12.245,7.452 v 1.891 c -1.935,-2.748 -5.708,-6.704 -11.437,-6.704 m -168.563,17.675 v -9.62 c 0.279,-0.445 0.619,-0.954 1.033,-1.5 -0.25,1.406 -0.435,3.712 0.307,6.142 z m 0,-13.59 v -2.58 c 0,0 3.647,-2.168 4.576,-4.146 h 5.874 c -4.987,1.664 -8.604,4.809 -10.45,6.726 m 180,233.941 v 2.58 c 0,0 -3.646,2.168 -4.576,4.146 h -5.871 c 4.985,-1.664 8.601,-4.81 10.447,-6.726 M -9.411,-9.19 h 5.869 c 0.93,1.976 4.576,4.146 4.576,4.146 v 2.578 C -0.812,-4.383 -4.427,-7.526 -9.411,-9.19 m -159.111,247.389 h -5.868 c -0.929,-1.976 -4.576,-4.146 -4.576,-4.146 v -2.578 c 1.846,1.916 5.46,5.06 10.444,6.724" />
    </g>
  </g>
</svg>
