<?xml version="1.0" encoding="UTF-8" standalone="no"?>
<!-- Created with Inkscape (http://www.inkscape.org/) -->

<svg
   xmlns:dc="http://purl.org/dc/elements/1.1/"
   xmlns:cc="http://creativecommons.org/ns#"
   xmlns:rdf="http://www.w3.org/1999/02/22-rdf-syntax-ns#"
   xmlns:svg="http://www.w3.org/2000/svg"
   xmlns="http://www.w3.org/2000/svg"
   xmlns:sodipodi="http://sodipodi.sourceforge.net/DTD/sodipodi-0.dtd"
   xmlns:inkscape="http://www.inkscape.org/namespaces/inkscape"
   width="196.75699mm"
   height="41.93734mm"
   viewBox="0 0 196.75699 41.93734"
   version="1.1"
   id="svg13617"
   inkscape:version="0.92.3 (2405546, 2018-03-11)"
   sodipodi:docname="bar-4.svg">
  <defs
     id="defs13611">
    <clipPath
       id="clipPath10858"
       clipPathUnits="userSpaceOnUse">
      <path
         inkscape:connector-curvature="0"
         id="path10856"
         d="M 0,0 H 612 V 792 H 0 Z" />
    </clipPath>
  </defs>
  <sodipodi:namedview
     id="base"
     pagecolor="#ffffff"
     bordercolor="#666666"
     borderopacity="1.0"
     inkscape:pageopacity="0.0"
     inkscape:pageshadow="2"
     inkscape:zoom="0.35"
     inkscape:cx="340.57094"
     inkscape:cy="-306.31985"
     inkscape:document-units="mm"
     inkscape:current-layer="layer1"
     showgrid="false"
     inkscape:window-width="1920"
     inkscape:window-height="1017"
     inkscape:window-x="-8"
     inkscape:window-y="-8"
     inkscape:window-maximized="1" />
  <metadata
     id="metadata13614">
    <rdf:RDF>
      <cc:Work
         rdf:about="">
        <dc:format>image/svg+xml</dc:format>
        <dc:type
           rdf:resource="http://purl.org/dc/dcmitype/StillImage" />
        <dc:title />
      </cc:Work>
    </rdf:RDF>
  </metadata>
  <g
     inkscape:label="Layer 1"
     inkscape:groupmode="layer"
     id="layer1"
     transform="translate(-3.7726358,-2.3267871)">
    <g
       id="g8612"
       transform="matrix(1.1297166,0,0,-1.1297166,194.29629,38.061193)">
      <path
         d="M 0,0 4.83,5.83 V 20.312 L 0,26.142 H -158.189 V 0 Z"
         style="fill:#ffffff;fill-opacity:1;fill-rule:nonzero;stroke:none"
         id="path8614"
         inkscape:connector-curvature="0" />
    </g>
    <g
       id="g8724"
       transform="matrix(1.1297166,0,0,-1.1297166,7.161786,36.824492)">
      <path
         d="m 0,0 v 23.954 l 2.7,2.54 10.216,-8.861 V 6.319 L 2.7,-2.542 Z"
         style="fill:#ffffff;fill-opacity:1;fill-rule:nonzero;stroke:none"
         id="path8726"
         inkscape:connector-curvature="0" />
    </g>
    <g
       id="g8728"
       transform="matrix(1.1297166,0,0,-1.1297166,10.258564,9.1762564)">
      <path
         d="M 0,0 8.675,-7.525 V -17.47 L 0,-24.994 -1.241,-23.826 V -1.168 Z M -0.082,4.042 -4.241,0.129 v -25.251 l 4.159,-3.915 11.757,10.198 v 12.683 z"
         style="fill:#dedfdf;fill-opacity:1;fill-rule:nonzero;stroke:none"
         id="path8730"
         inkscape:connector-curvature="0" />
    </g>
    <g
       id="g10852"
       transform="matrix(1.1297166,0,0,-1.1297166,-31.277271,741.36964)">
      <g
         id="g10854"
         clip-path="url(#clipPath10858)">
        <g
           id="g10860"
           transform="translate(205.1903,628.0979)">
          <path
             d="m 0,0 v 15.052 l -6.232,6.232 h -105.371 -53.696 l 1.585,-1.375 h 6.945 l 7.034,-8.572 c -0.239,-0.792 -0.406,-1.676 -0.484,-2.657 -0.542,-0.117 -0.958,-0.576 -0.958,-1.154 0,-0.577 0.416,-1.037 0.959,-1.152 0.077,-0.979 0.244,-1.862 0.483,-2.653 l -7.039,-8.578 h -6.94 l -1.586,-1.375 h 53.698 105.37 z m -152.628,-4.857 1.624,2.044 H -9.08 c -2.197,-1.155 -4.388,-1.745 -6.058,-2.044 z m 5.902,15.125 V 4.781 l -1.882,-2.368 c -0.514,1.077 -0.89,2.39 -1.013,3.983 0.487,0.154 0.848,0.593 0.848,1.13 0,0.538 -0.362,0.978 -0.849,1.131 0.123,1.593 0.499,2.905 1.013,3.981 z m -3.804,6.999 h 5.56 c -0.938,-0.511 -2.207,-1.404 -3.275,-2.877 z m 2.287,-16.605 c 1.067,-1.474 2.336,-2.366 3.274,-2.876 h -5.559 z m -1.264,2.392 c 0.152,-0.405 0.32,-0.783 0.504,-1.138 l -5.382,-6.773 h -1.614 z m -4.88,16.855 5.382,-6.773 c -0.182,-0.354 -0.349,-0.731 -0.501,-1.133 l -6.488,7.906 z m 138.654,0 c 1.678,-0.255 4.055,-0.815 6.46,-2.043 h -141.734 l -1.623,2.043 z m 14.358,-8.826 c -2.686,5.266 -7.272,7.701 -10.965,8.826 h 5.537 l 5.428,-5.428 z m 0,-5.357 C -2.91,1.853 -5.448,-0.646 -8.094,-2.253 v 0.039 h -135.417 c -0.291,0.086 -2.642,0.858 -4.36,3.344 l 2.52,3.171 v 6.447 l -2.522,3.174 c 1.718,2.486 4.07,3.259 4.36,3.345 H -8.195 c 2.682,-1.606 5.265,-4.12 6.82,-8.041 z m 0,-5.156 -5.428,-5.427 h -5.223 c 3.634,1.165 8.04,3.607 10.651,8.722 z"
             style="fill:#000000;fill-opacity:1;fill-rule:nonzero;stroke:none"
             id="path10862"
             inkscape:connector-curvature="0" />
        </g>
      </g>
    </g>
    <g
       id="g10864"
       transform="matrix(1.1297166,0,0,-1.1297166,10.165702,4.6099443)">
      <path
         d="M 0,0 11.757,-10.198 V -22.881 L 0,-33.079 -4.159,-29.164 V -3.913 Z M -0.041,2.021 -1.027,1.093 -5.187,-2.82 -5.659,-3.265 v -0.648 -25.251 -0.648 l 0.472,-0.445 4.159,-3.914 0.987,-0.93 1.023,0.889 11.758,10.198 0.517,0.449 v 0.684 12.683 0.684 L 12.74,-9.065 0.982,1.133 Z"
         style="fill:#000000;fill-opacity:1;fill-rule:nonzero;stroke:none"
         id="path10866"
         inkscape:connector-curvature="0" />
    </g>
  </g>
</svg>
