<?xml version="1.0" encoding="UTF-8" standalone="no"?>
<!-- Created with Inkscape (http://www.inkscape.org/) -->

<svg
   xmlns:dc="http://purl.org/dc/elements/1.1/"
   xmlns:cc="http://creativecommons.org/ns#"
   xmlns:rdf="http://www.w3.org/1999/02/22-rdf-syntax-ns#"
   xmlns:svg="http://www.w3.org/2000/svg"
   xmlns="http://www.w3.org/2000/svg"
   xmlns:sodipodi="http://sodipodi.sourceforge.net/DTD/sodipodi-0.dtd"
   xmlns:inkscape="http://www.inkscape.org/namespaces/inkscape"
   width="139.02412mm"
   height="291.1716mm"
   viewBox="0 0 139.02412 291.1716"
   version="1.1"
   id="svg4248"
   inkscape:version="0.92.3 (2405546, 2018-03-11)"
   sodipodi:docname="box-8.svg">
  <defs
     id="defs4242" />
  <sodipodi:namedview
     id="base"
     pagecolor="#ffffff"
     bordercolor="#666666"
     borderopacity="1.0"
     inkscape:pageopacity="0.0"
     inkscape:pageshadow="2"
     inkscape:zoom="1.4"
     inkscape:cx="396.20248"
     inkscape:cy="-272.04639"
     inkscape:document-units="mm"
     inkscape:current-layer="layer1"
     showgrid="false"
     inkscape:window-width="1920"
     inkscape:window-height="1017"
     inkscape:window-x="-8"
     inkscape:window-y="-8"
     inkscape:window-maximized="1" />
  <metadata
     id="metadata4245">
    <rdf:RDF>
      <cc:Work
         rdf:about="">
        <dc:format>image/svg+xml</dc:format>
        <dc:type
           rdf:resource="http://purl.org/dc/dcmitype/StillImage" />
        <dc:title />
      </cc:Work>
    </rdf:RDF>
  </metadata>
  <g
     inkscape:label="Layer 1"
     inkscape:groupmode="layer"
     id="layer1"
     transform="translate(-1.7899462,-1.546648)">
    <g
       transform="matrix(0.75208208,0,0,-0.75208208,139.0386,272.63689)"
       id="g480">
      <path
         inkscape:connector-curvature="0"
         id="path482"
         style="fill:#000000;fill-opacity:1;fill-rule:nonzero;stroke:none"
         d="m 0,0 v 356.368 l -0.439,0.137 c -1.116,0.349 -4.012,1.624 -4.012,3.323 v 0.625 h -171.096 v -0.625 c 0,-1.699 -2.897,-2.974 -4.014,-3.323 L -180,356.368 V 0.531 c -0.637,-2.549 -3.125,-13.056 -2.34,-18.666 l 0.043,-0.308 0.296,-0.097 c 0.027,-0.009 0.855,-0.289 2.001,-0.793 v -3.284 l 0.439,-0.136 c 1.117,-0.347 4.014,-1.619 4.014,-3.323 v -0.625 H -4.451 v 0.625 c 0,1.699 2.896,2.974 4.012,3.323 L 0,-22.616 v 3.339 c 1.075,0.467 1.845,0.728 1.87,0.737 l 0.296,0.097 0.043,0.308 C 2.948,-12.858 0.789,-3.245 0,0 m -178.75,349.659 c 0.164,0.342 0.446,0.905 0.844,1.601 V -0.858 c 0,-3.393 -0.287,-7.24 -0.844,-11.466 z m 0,-365.486 c 0.892,5.625 1.344,10.652 1.344,14.969 v 352.957 c 1.655,2.67 4.601,6.385 8.483,7.104 h 157.845 c 3.88,-0.719 6.828,-4.437 8.484,-7.107 V -0.858 c 0,-4.317 0.452,-9.344 1.344,-14.969 v -2.912 c -2.704,-1.276 -6.45,-3.577 -7.099,-6.712 h -163.433 c -0.639,3.085 -4.275,5.362 -6.968,6.65 z M -2.094,351.257 c 0.398,-0.695 0.68,-1.257 0.844,-1.599 V -12.324 c -0.557,4.226 -0.844,8.073 -0.844,11.466 z m 0.844,4.208 v -3.644 c -1.271,2.23 -3.622,5.633 -6.886,7.382 h 2.506 c 0.483,-2.086 3.278,-3.325 4.38,-3.738 m -173.118,3.738 h 2.504 c -3.264,-1.749 -5.615,-5.152 -6.886,-7.382 v 3.644 c 1.103,0.413 3.899,1.652 4.382,3.738 m -7.02,-376.897 c -0.422,3.693 0.538,9.537 1.388,13.673 v -14.216 c -0.602,0.254 -1.093,0.437 -1.388,0.543 m 2.638,-4.019 v 1.79 c 2.392,-1.195 5.313,-3.109 5.943,-5.528 h -1.561 c -0.483,2.086 -3.279,3.325 -4.382,3.738 m 177.5,0 c -1.102,-0.413 -3.897,-1.652 -4.38,-3.738 h -1.694 c 0.641,2.46 3.66,4.402 6.074,5.593 z m 2.507,4.019 C 0.984,-17.792 0.538,-17.96 0,-18.183 v 13.516 c 0.813,-4.081 1.657,-9.521 1.257,-13.027" />
    </g>
  </g>
</svg>
