<?xml version="1.0" encoding="UTF-8" standalone="no"?>
<!-- Created with Inkscape (http://www.inkscape.org/) -->

<svg
   xmlns:dc="http://purl.org/dc/elements/1.1/"
   xmlns:cc="http://creativecommons.org/ns#"
   xmlns:rdf="http://www.w3.org/1999/02/22-rdf-syntax-ns#"
   xmlns:svg="http://www.w3.org/2000/svg"
   xmlns="http://www.w3.org/2000/svg"
   xmlns:sodipodi="http://sodipodi.sourceforge.net/DTD/sodipodi-0.dtd"
   xmlns:inkscape="http://www.inkscape.org/namespaces/inkscape"
   width="202.04637mm"
   height="90.679893mm"
   viewBox="0 0 202.04637 90.679893"
   version="1.1"
   id="svg13689"
   inkscape:version="0.92.3 (2405546, 2018-03-11)"
   sodipodi:docname="box-10.svg">
  <defs
     id="defs13683">
    <clipPath
       id="clipPath8882"
       clipPathUnits="userSpaceOnUse">
      <path
         inkscape:connector-curvature="0"
         id="path8880"
         d="M 0,0 H 612 V 792 H 0 Z" />
    </clipPath>
  </defs>
  <sodipodi:namedview
     id="base"
     pagecolor="#ffffff"
     bordercolor="#666666"
     borderopacity="1.0"
     inkscape:pageopacity="0.0"
     inkscape:pageshadow="2"
     inkscape:zoom="0.35"
     inkscape:cx="384.67707"
     inkscape:cy="-205.60314"
     inkscape:document-units="mm"
     inkscape:current-layer="layer1"
     showgrid="false"
     inkscape:window-width="1920"
     inkscape:window-height="1017"
     inkscape:window-x="-8"
     inkscape:window-y="-8"
     inkscape:window-maximized="1" />
  <metadata
     id="metadata13686">
    <rdf:RDF>
      <cc:Work
         rdf:about="">
        <dc:format>image/svg+xml</dc:format>
        <dc:type
           rdf:resource="http://purl.org/dc/dcmitype/StillImage" />
        <dc:title />
      </cc:Work>
    </rdf:RDF>
  </metadata>
  <g
     inkscape:label="Layer 1"
     inkscape:groupmode="layer"
     id="layer1"
     transform="translate(-4.0541925,-3.7542789)">
    <g
       id="g8864"
       transform="matrix(2.6730306,0,0,-2.6730306,187.32118,5.5919874)">
      <path
         d="m 0,0 h -61.537 l -6.337,-7.977 v -16.596 l 6.335,-7.976 H 0.002 l 6.336,7.976 v 16.596 z"
         style="fill:#ffffff;fill-opacity:1;fill-rule:nonzero;stroke:none"
         id="path8866"
         inkscape:connector-curvature="0" />
    </g>
    <g
       id="g8868"
       transform="matrix(2.6730306,0,0,-2.6730306,187.32118,5.5919874)">
      <path
         d="m 0,0 h -61.537 l -6.337,-7.977 v -16.596 l 6.335,-7.976 H 0.002 l 6.336,7.976 v 16.596 z"
         style="fill:none;stroke:#000000;stroke-width:1.375;stroke-linecap:butt;stroke-linejoin:miter;stroke-miterlimit:10;stroke-dasharray:none;stroke-opacity:1"
         id="path8870"
         inkscape:connector-curvature="0" />
    </g>
    <g
       id="g8872"
       transform="matrix(2.6730306,0,0,-2.6730306,10.996349,20.483979)">
      <path
         d="m 0,0 v -21.724 m 0,3.06 6.716,-8.314 M 6.715,5.571 -0.001,-2.742"
         style="fill:none;stroke:#000000;stroke-width:0.60000002;stroke-linecap:butt;stroke-linejoin:miter;stroke-miterlimit:10;stroke-dasharray:none;stroke-opacity:1"
         id="path8874"
         inkscape:connector-curvature="0" />
    </g>
    <g
       id="g8876"
       transform="matrix(2.6730306,0,0,-2.6730306,-740.15114,1983.7057)">
      <g
         id="g8878"
         clip-path="url(#clipPath8882)">
        <g
           id="g8884"
           transform="translate(280.0595,723.7532)">
          <path
             d="M 0,0 C 0,-0.525 0.426,-0.951 0.95,-0.951 1.475,-0.951 1.9,-0.525 1.9,0 1.9,0.523 1.475,0.949 0.95,0.949 0.426,0.949 0,0.523 0,0"
             style="fill:#000000;fill-opacity:1;fill-rule:nonzero;stroke:none"
             id="path8886"
             inkscape:connector-curvature="0" />
        </g>
        <g
           id="g8888"
           transform="translate(352.352,723.7532)">
          <path
             d="m 0,0 c 0,-0.525 -0.426,-0.951 -0.95,-0.951 -0.525,0 -0.95,0.426 -0.95,0.951 0,0.523 0.425,0.949 0.95,0.949 C -0.426,0.949 0,0.523 0,0"
             style="fill:#000000;fill-opacity:1;fill-rule:nonzero;stroke:none"
             id="path8890"
             inkscape:connector-curvature="0" />
        </g>
      </g>
    </g>
    <g
       id="g8892"
       transform="matrix(2.6730306,0,0,-2.6730306,199.15661,20.483979)">
      <path
         d="m 0,0 v -21.724 m 0,3.06 -6.716,-8.314 m 0.001,32.549 6.716,-8.313"
         style="fill:none;stroke:#000000;stroke-width:0.60000002;stroke-linecap:butt;stroke-linejoin:miter;stroke-miterlimit:10;stroke-dasharray:none;stroke-opacity:1"
         id="path8894"
         inkscape:connector-curvature="0" />
    </g>
  </g>
</svg>
