<?xml version="1.0" encoding="UTF-8" standalone="no"?>
<!-- Created with Inkscape (http://www.inkscape.org/) -->

<svg
   xmlns:dc="http://purl.org/dc/elements/1.1/"
   xmlns:cc="http://creativecommons.org/ns#"
   xmlns:rdf="http://www.w3.org/1999/02/22-rdf-syntax-ns#"
   xmlns:svg="http://www.w3.org/2000/svg"
   xmlns="http://www.w3.org/2000/svg"
   xmlns:sodipodi="http://sodipodi.sourceforge.net/DTD/sodipodi-0.dtd"
   xmlns:inkscape="http://www.inkscape.org/namespaces/inkscape"
   width="203.3058mm"
   height="210.95377mm"
   viewBox="0 0 203.3058 210.95377"
   version="1.1"
   id="svg8342"
   inkscape:version="0.92.3 (2405546, 2018-03-11)"
   sodipodi:docname="box-11.svg">
  <defs
     id="defs8336" />
  <sodipodi:namedview
     id="base"
     pagecolor="#ffffff"
     bordercolor="#666666"
     borderopacity="1.0"
     inkscape:pageopacity="0.0"
     inkscape:pageshadow="2"
     inkscape:zoom="0.35"
     inkscape:cx="389.15475"
     inkscape:cy="252.93848"
     inkscape:document-units="mm"
     inkscape:current-layer="layer1"
     showgrid="false"
     inkscape:window-width="1920"
     inkscape:window-height="1017"
     inkscape:window-x="-8"
     inkscape:window-y="-8"
     inkscape:window-maximized="1" />
  <metadata
     id="metadata8339">
    <rdf:RDF>
      <cc:Work
         rdf:about="">
        <dc:format>image/svg+xml</dc:format>
        <dc:type
           rdf:resource="http://purl.org/dc/dcmitype/StillImage" />
        <dc:title />
      </cc:Work>
    </rdf:RDF>
  </metadata>
  <g
     inkscape:label="Layer 1"
     inkscape:groupmode="layer"
     id="layer1"
     transform="translate(-2.8694732,-4.8028809)">
    <path
       d="M 205.24886,209.65835 H 3.7958875 V 10.901724 H 205.24886 Z"
       style="fill:#ffffff;fill-opacity:1;fill-rule:nonzero;stroke:none;stroke-width:1.34751177"
       id="path7692"
       inkscape:connector-curvature="0" />
    <path
       d="M 205.24886,209.65835 H 3.7958875 V 10.901724 H 205.24886 Z"
       style="fill:none;stroke:#000000;stroke-width:1.8528285;stroke-linecap:butt;stroke-linejoin:miter;stroke-miterlimit:10;stroke-dasharray:none;stroke-opacity:1"
       id="path7694"
       inkscape:connector-curvature="0" />
    <g
       id="g7848"
       transform="matrix(1.3475117,0,0,-1.3475117,205.24832,16.475701)">
      <path
         d="m 0,0 c -4.762,3.49 -6.938,7.975 -6.938,7.975 h -135.624 c 0,0 -2.176,-4.485 -6.938,-7.975"
         style="fill:none;stroke:#000000;stroke-width:1.375;stroke-linecap:butt;stroke-linejoin:miter;stroke-miterlimit:10;stroke-dasharray:none;stroke-opacity:1"
         id="path7850"
         inkscape:connector-curvature="0" />
    </g>
    <g
       id="g7852"
       transform="matrix(1.3475117,0,0,-1.3475117,11.647429,8.231355)">
      <path
         d="m 0,0 h 136.892 m -36.391,-0.003 c -9.234,-3.068 -20.037,-4.832 -31.582,-4.832 -11.545,0 -22.348,1.764 -31.582,4.832"
         style="fill:none;stroke:#000000;stroke-width:0.60000002;stroke-linecap:butt;stroke-linejoin:miter;stroke-miterlimit:10;stroke-dasharray:none;stroke-opacity:1"
         id="path7854"
         inkscape:connector-curvature="0" />
    </g>
    <g
       id="g7856"
       transform="matrix(1.3475117,0,0,-1.3475117,106.24707,14.746576)">
      <path
         d="m 0,0 c 0,-0.709 -0.575,-1.284 -1.284,-1.284 -0.709,0 -1.284,0.575 -1.284,1.284 0,0.709 0.575,1.284 1.284,1.284 C -0.575,1.284 0,0.709 0,0"
         style="fill:#000000;fill-opacity:1;fill-rule:nonzero;stroke:none"
         id="path7858"
         inkscape:connector-curvature="0" />
    </g>
    <g
       id="g7860"
       transform="matrix(1.3475117,0,0,-1.3475117,3.7953412,204.08382)">
      <path
         d="m 0,0 c 4.762,-3.49 6.938,-7.975 6.938,-7.975 h 135.624 c 0,0 2.176,4.485 6.938,7.975"
         style="fill:none;stroke:#000000;stroke-width:1.375;stroke-linecap:butt;stroke-linejoin:miter;stroke-miterlimit:10;stroke-dasharray:none;stroke-opacity:1"
         id="path7862"
         inkscape:connector-curvature="0" />
    </g>
    <g
       id="g7864"
       transform="matrix(1.3475117,0,0,-1.3475117,197.39612,212.32817)">
      <path
         d="m 0,0 h -136.892 m 36.391,0.003 c 9.234,3.068 20.037,4.832 31.582,4.832 11.545,0 22.348,-1.764 31.582,-4.832"
         style="fill:none;stroke:#000000;stroke-width:0.60000002;stroke-linecap:butt;stroke-linejoin:miter;stroke-miterlimit:10;stroke-dasharray:none;stroke-opacity:1"
         id="path7866"
         inkscape:connector-curvature="0" />
    </g>
    <g
       id="g7868"
       transform="matrix(1.3475117,0,0,-1.3475117,102.7966,205.81295)">
      <path
         d="M 0,0 C 0,0.709 0.575,1.284 1.284,1.284 1.993,1.284 2.568,0.709 2.568,0 2.568,-0.709 1.993,-1.284 1.284,-1.284 0.575,-1.284 0,-0.709 0,0"
         style="fill:#000000;fill-opacity:1;fill-rule:nonzero;stroke:none"
         id="path7870"
         inkscape:connector-curvature="0" />
    </g>
  </g>
</svg>
