<?xml version="1.0" encoding="UTF-8" standalone="no"?>
<!-- Created with Inkscape (http://www.inkscape.org/) -->

<svg
   xmlns:dc="http://purl.org/dc/elements/1.1/"
   xmlns:cc="http://creativecommons.org/ns#"
   xmlns:rdf="http://www.w3.org/1999/02/22-rdf-syntax-ns#"
   xmlns:svg="http://www.w3.org/2000/svg"
   xmlns="http://www.w3.org/2000/svg"
   xmlns:sodipodi="http://sodipodi.sourceforge.net/DTD/sodipodi-0.dtd"
   xmlns:inkscape="http://www.inkscape.org/namespaces/inkscape"
   width="205.24588mm"
   height="84.550476mm"
   viewBox="0 0 205.24588 84.550476"
   version="1.1"
   id="svg3892"
   inkscape:version="0.92.3 (2405546, 2018-03-11)"
   sodipodi:docname="detail-4.svg">
  <defs
     id="defs3886" />
  <sodipodi:namedview
     id="base"
     pagecolor="#ffffff"
     bordercolor="#666666"
     borderopacity="1.0"
     inkscape:pageopacity="0.0"
     inkscape:pageshadow="2"
     inkscape:zoom="0.49497475"
     inkscape:cx="662.51022"
     inkscape:cy="124.69313"
     inkscape:document-units="mm"
     inkscape:current-layer="layer1"
     showgrid="false"
     inkscape:window-width="1920"
     inkscape:window-height="1017"
     inkscape:window-x="-8"
     inkscape:window-y="-8"
     inkscape:window-maximized="1" />
  <metadata
     id="metadata3889">
    <rdf:RDF>
      <cc:Work
         rdf:about="">
        <dc:format>image/svg+xml</dc:format>
        <dc:type
           rdf:resource="http://purl.org/dc/dcmitype/StillImage" />
        <dc:title />
      </cc:Work>
    </rdf:RDF>
  </metadata>
  <g
     inkscape:label="Layer 1"
     inkscape:groupmode="layer"
     id="layer1"
     transform="translate(-1.3481663,-1.3367678)">
    <g
       transform="matrix(3.7660005,0,0,-3.7660005,113.36372,24.23744)"
       id="g672">
      <path
         inkscape:connector-curvature="0"
         id="path674"
         style="fill:#ffffff;fill-opacity:1;fill-rule:nonzero;stroke:none"
         d="m 0,0 c -0.714,-0.714 -1.873,-0.716 -2.588,0.002 -0.473,0.471 -0.625,1.137 -0.473,1.741 h -19.044 c 0.153,-0.604 0,-1.27 -0.473,-1.741 -0.714,-0.718 -1.873,-0.716 -2.588,-0.002 l -4.078,-3.442 v -1.703 -1.703 l 4.078,-3.442 c 0.715,0.715 1.874,0.716 2.588,-0.002 0.473,-0.47 0.626,-1.136 0.473,-1.74 h 19.044 c -0.152,0.604 0,1.27 0.473,1.74 0.715,0.718 1.874,0.717 2.588,0.002 l 4.079,3.442 v 1.703 1.703 z" />
    </g>
    <g
       transform="matrix(3.7660005,0,0,-3.7660005,104.25413,71.434083)"
       id="g676">
      <path
         inkscape:connector-curvature="0"
         id="path678"
         style="fill:#000000;fill-opacity:1;fill-rule:nonzero;stroke:none"
         d="m 0,0 h -20.329 l 0.158,0.623 c 0.117,0.462 -0.011,0.935 -0.341,1.263 -0.506,0.508 -1.38,0.505 -1.882,0.003 l -0.325,-0.326 -4.606,3.889 v 3.87 l 4.606,3.889 0.325,-0.325 c 0.502,-0.502 1.38,-0.501 1.88,0.001 0.332,0.331 0.46,0.803 0.343,1.265 l -0.158,0.623 H 0 L -0.157,14.153 C -0.273,13.69 -0.146,13.217 0.184,12.889 0.689,12.381 1.563,12.386 2.065,12.886 L 2.391,13.211 6.998,9.322 V 5.452 L 2.39,1.563 2.065,1.889 C 1.562,2.393 0.686,2.392 0.186,1.888 -0.146,1.558 -0.273,1.086 -0.157,0.622 Z m -19.131,1 h 17.932 c 0.009,0.596 0.244,1.164 0.678,1.595 0.766,0.768 2.048,0.885 2.934,0.297 l 3.585,3.025 v 2.94 l -3.586,3.027 c -0.884,-0.591 -2.166,-0.475 -2.935,0.298 -0.432,0.429 -0.667,0.998 -0.676,1.593 h -17.929 c -0.009,-0.594 -0.245,-1.164 -0.679,-1.595 -0.763,-0.769 -2.046,-0.886 -2.933,-0.296 l -3.585,-3.027 v -2.94 l 3.585,-3.026 c 0.885,0.59 2.168,0.474 2.935,-0.298 0.425,-0.422 0.662,-0.998 0.674,-1.593" />
    </g>
    <g
       transform="matrix(3.7660005,0,0,-3.7660005,204.47606,52.765628)"
       id="g680">
      <path
         inkscape:connector-curvature="0"
         id="path682"
         style="fill:#ffffff;fill-opacity:1;fill-rule:nonzero;stroke:none"
         d="m 0,0 -0.001,4.865 -6.536,8.229 H -36.064 L -42.602,4.865 -42.603,0 l 6.54,-8.232 h 29.522 z" />
    </g>
    <g
       transform="matrix(3.7660005,0,0,-3.7660005,180.86473,85.887245)"
       id="g684">
      <path
         inkscape:connector-curvature="0"
         id="path686"
         style="fill:#000000;fill-opacity:1;fill-rule:nonzero;stroke:none"
         d="m 0,0 h -30.064 l -6.832,8.599 10e-4,5.257 6.829,8.595 H 0.004 L 6.831,13.856 6.832,8.599 Z m -29.521,1.125 h 28.978 l 6.25,7.866 -10e-4,4.473 -6.245,7.862 h -28.984 l -6.247,-7.862 -10e-4,-4.473 z" />
    </g>
    <g
       transform="matrix(3.7660005,0,0,-3.7660005,51.405072,61.54457)"
       id="g696">
      <path
         inkscape:connector-curvature="0"
         id="path698"
         style="fill:#000000;fill-opacity:1;fill-rule:nonzero;stroke:none"
         d="m 0,0 -0.49,0.346 c 0.905,1.287 1.385,2.802 1.385,4.383 0,1.596 -0.488,3.125 -1.409,4.422 l 0.489,0.348 C 0.969,8.1 1.494,6.45 1.494,4.729 1.494,3.024 0.978,1.389 0,0" />
    </g>
    <g
       transform="matrix(3.7660005,0,0,-3.7660005,197.08753,61.54457)"
       id="g700">
      <path
         inkscape:connector-curvature="0"
         id="path702"
         style="fill:#000000;fill-opacity:1;fill-rule:nonzero;stroke:none"
         d="m 0,0 c -0.977,1.388 -1.493,3.023 -1.493,4.729 0,1.722 0.524,3.371 1.518,4.77 L 0.514,9.151 c -0.92,-1.297 -1.408,-2.826 -1.408,-4.422 0,-1.582 0.479,-3.097 1.384,-4.383 z" />
    </g>
    <g
       transform="matrix(3.7660005,0,0,-3.7660005,52.445624,43.608231)"
       id="g704">
      <path
         inkscape:connector-curvature="0"
         id="path706"
         style="fill:#ffffff;fill-opacity:1;fill-rule:nonzero;stroke:none"
         d="M 0,0 C -0.002,0.539 0.439,0.979 0.979,0.979 1.521,0.98 1.958,0.539 1.96,0 1.96,-0.541 1.521,-0.98 0.979,-0.98 0.439,-0.98 0,-0.541 0,0" />
    </g>
    <g
       transform="matrix(3.7660005,0,0,-3.7660005,56.130665,48.241937)"
       id="g708">
      <path
         inkscape:connector-curvature="0"
         id="path710"
         style="fill:#000000;fill-opacity:1;fill-rule:nonzero;stroke:none"
         d="m 0,0 c -0.678,0 -1.229,0.552 -1.229,1.23 0,0.326 0.126,0.634 0.358,0.867 C -0.638,2.33 -0.329,2.459 0,2.459 0.678,2.459 1.229,1.908 1.231,1.231 1.231,0.552 0.679,0 0,0 M 0.004,1.959 C -0.195,1.959 -0.379,1.883 -0.517,1.744 -0.654,1.605 -0.729,1.424 -0.729,1.231 -0.729,0.828 -0.401,0.5 0,0.5 0.403,0.5 0.731,0.828 0.731,1.23 0.73,1.632 0.403,1.959 0.004,1.959" />
    </g>
    <g
       transform="matrix(3.7660005,0,0,-3.7660005,196.04661,43.608231)"
       id="g712">
      <path
         inkscape:connector-curvature="0"
         id="path714"
         style="fill:#ffffff;fill-opacity:1;fill-rule:nonzero;stroke:none"
         d="M 0,0 C 0.002,0.539 -0.439,0.979 -0.979,0.979 -1.521,0.98 -1.957,0.539 -1.959,0 c 0,-0.541 0.438,-0.98 0.98,-0.98 C -0.439,-0.98 0,-0.541 0,0" />
    </g>
    <g
       transform="matrix(3.7660005,0,0,-3.7660005,192.36157,48.241937)"
       id="g716">
      <path
         inkscape:connector-curvature="0"
         id="path718"
         style="fill:#000000;fill-opacity:1;fill-rule:nonzero;stroke:none"
         d="m 0,0 c -0.679,0 -1.23,0.552 -1.23,1.23 0.002,0.678 0.552,1.229 1.226,1.229 0.333,0 0.642,-0.129 0.875,-0.362 C 1.103,1.864 1.229,1.556 1.229,1.229 1.229,0.552 0.678,0 0,0 m 0,1.959 c -0.403,0 -0.729,-0.327 -0.73,-0.73 C -0.73,0.828 -0.402,0.5 0,0.5 0.401,0.5 0.729,0.828 0.729,1.23 0.729,1.424 0.654,1.605 0.517,1.744 0.379,1.883 0.195,1.959 0,1.959" />
    </g>
    <g
       transform="matrix(3.7660005,0,0,-3.7660005,196.29667,41.592667)"
       id="g720">
      <path
         inkscape:connector-curvature="0"
         id="path722"
         style="fill:#000000;fill-opacity:1;fill-rule:nonzero;stroke:none"
         d="m 0,0 -0.494,0.07 c 0.011,0.078 0.29,1.915 2.13,2.622 L 1.815,2.226 C 0.247,1.623 0.003,0.017 0,0" />
    </g>
    <g
       transform="matrix(3.7660005,0,0,-3.7660005,194.11954,32.913176)"
       id="g724">
      <path
         inkscape:connector-curvature="0"
         id="path726"
         style="fill:#000000;fill-opacity:1;fill-rule:nonzero;stroke:none"
         d="m 0,0 -3.919,4.995 c -0.019,0.016 -0.814,0.81 -2.095,-0.053 l -0.177,-0.12 -2.63,2.83 0.365,0.34 2.345,-2.52 c 1.541,0.906 2.56,-0.139 2.57,-0.151 L 0.393,0.309 Z" />
    </g>
    <g
       transform="matrix(3.7660005,0,0,-3.7660005,202.46049,55.770527)"
       id="g728">
      <path
         inkscape:connector-curvature="0"
         id="path730"
         style="fill:#000000;fill-opacity:1;fill-rule:nonzero;stroke:none"
         d="m 0,0 c -1.84,0.707 -2.119,2.544 -2.13,2.622 l 0.494,0.07 C -1.626,2.627 -1.38,1.065 0.18,0.467 Z" />
    </g>
    <g
       transform="matrix(3.7660005,0,0,-3.7660005,162.27765,84.409071)"
       id="g732">
      <path
         inkscape:connector-curvature="0"
         id="path734"
         style="fill:#000000;fill-opacity:1;fill-rule:nonzero;stroke:none"
         d="M 0,0 -0.365,0.34 2.265,3.17 2.442,3.05 C 3.735,2.179 4.52,2.979 4.552,3.015 L 8.456,7.992 8.849,7.684 4.93,2.688 C 4.906,2.66 3.886,1.612 2.345,2.521 Z" />
    </g>
    <g
       transform="matrix(3.7660005,0,0,-3.7660005,52.372188,41.592667)"
       id="g736">
      <path
         inkscape:connector-curvature="0"
         id="path738"
         style="fill:#000000;fill-opacity:1;fill-rule:nonzero;stroke:none"
         d="m 0,0 c -0.01,0.065 -0.256,1.627 -1.815,2.226 l 0.179,0.466 C 0.204,1.985 0.483,0.148 0.494,0.07 Z" />
    </g>
    <g
       transform="matrix(3.7660005,0,0,-3.7660005,54.549304,32.913176)"
       id="g740">
      <path
         inkscape:connector-curvature="0"
         id="path742"
         style="fill:#000000;fill-opacity:1;fill-rule:nonzero;stroke:none"
         d="M 0,0 -0.393,0.309 3.526,5.304 C 3.55,5.332 4.571,6.38 6.111,5.472 l 2.345,2.52 0.365,-0.34 -2.63,-2.83 -0.177,0.12 C 4.722,5.812 3.938,5.011 3.904,4.978 Z" />
    </g>
    <g
       transform="matrix(3.7660005,0,0,-3.7660005,46.20839,55.770527)"
       id="g744">
      <path
         inkscape:connector-curvature="0"
         id="path746"
         style="fill:#000000;fill-opacity:1;fill-rule:nonzero;stroke:none"
         d="M 0,0 -0.18,0.467 C 1.389,1.069 1.633,2.676 1.636,2.692 L 2.13,2.622 C 2.119,2.544 1.84,0.707 0,0" />
    </g>
    <g
       transform="matrix(3.7660005,0,0,-3.7660005,86.391233,84.409071)"
       id="g748">
      <path
         inkscape:connector-curvature="0"
         id="path750"
         style="fill:#000000;fill-opacity:1;fill-rule:nonzero;stroke:none"
         d="m 0,0 -2.345,2.521 c -1.541,-0.907 -2.56,0.138 -2.57,0.15 l -3.934,5.013 0.393,0.308 3.919,-4.995 c 0.017,-0.015 0.814,-0.81 2.095,0.053 l 0.177,0.12 2.63,-2.83 z" />
    </g>
  </g>
</svg>
