<?xml version="1.0" encoding="UTF-8" standalone="no"?>
<!-- Created with Inkscape (http://www.inkscape.org/) -->

<svg
   xmlns:dc="http://purl.org/dc/elements/1.1/"
   xmlns:cc="http://creativecommons.org/ns#"
   xmlns:rdf="http://www.w3.org/1999/02/22-rdf-syntax-ns#"
   xmlns:svg="http://www.w3.org/2000/svg"
   xmlns="http://www.w3.org/2000/svg"
   xmlns:sodipodi="http://sodipodi.sourceforge.net/DTD/sodipodi-0.dtd"
   xmlns:inkscape="http://www.inkscape.org/namespaces/inkscape"
   width="201.8577mm"
   height="83.944733mm"
   viewBox="0 0 201.8577 83.944733"
   version="1.1"
   id="svg3301"
   inkscape:version="0.92.3 (2405546, 2018-03-11)"
   sodipodi:docname="detail.svg">
  <defs
     id="defs3295" />
  <sodipodi:namedview
     id="base"
     pagecolor="#ffffff"
     bordercolor="#666666"
     borderopacity="1.0"
     inkscape:pageopacity="0.0"
     inkscape:pageshadow="2"
     inkscape:zoom="0.49497475"
     inkscape:cx="875.58339"
     inkscape:cy="-12.689214"
     inkscape:document-units="mm"
     inkscape:current-layer="layer1"
     showgrid="false"
     inkscape:window-width="1920"
     inkscape:window-height="1017"
     inkscape:window-x="-8"
     inkscape:window-y="-8"
     inkscape:window-maximized="1" />
  <metadata
     id="metadata3298">
    <rdf:RDF>
      <cc:Work
         rdf:about="">
        <dc:format>image/svg+xml</dc:format>
        <dc:type
           rdf:resource="http://purl.org/dc/dcmitype/StillImage" />
        <dc:title />
      </cc:Work>
    </rdf:RDF>
  </metadata>
  <g
     inkscape:label="Layer 1"
     inkscape:groupmode="layer"
     id="layer1"
     transform="translate(-3.096544,-3.6974905)">
    <g
       transform="matrix(3.7390198,0,0,-3.7390198,114.30957,24.744437)"
       id="g488">
      <path
         inkscape:connector-curvature="0"
         id="path490"
         style="fill:#ffffff;fill-opacity:1;fill-rule:nonzero;stroke:none"
         d="m 0,0 c -0.714,-0.714 -1.873,-0.716 -2.588,0.002 -0.473,0.471 -0.625,1.137 -0.473,1.741 h -19.044 c 0.153,-0.604 0,-1.27 -0.473,-1.741 -0.714,-0.718 -1.873,-0.716 -2.588,-0.002 l -4.078,-3.442 v -1.703 -1.703 l 4.078,-3.442 c 0.715,0.715 1.874,0.716 2.588,-0.002 0.473,-0.47 0.626,-1.136 0.473,-1.74 h 19.044 c -0.152,0.604 0,1.27 0.473,1.74 0.715,0.718 1.874,0.717 2.588,0.002 l 4.079,3.442 v 1.703 1.703 z" />
    </g>
    <g
       transform="matrix(3.7390198,0,0,-3.7390198,105.26526,71.602578)"
       id="g492">
      <path
         inkscape:connector-curvature="0"
         id="path494"
         style="fill:#000000;fill-opacity:1;fill-rule:nonzero;stroke:none"
         d="m 0,0 h -20.329 l 0.158,0.623 c 0.117,0.462 -0.011,0.935 -0.341,1.263 -0.506,0.508 -1.38,0.505 -1.882,0.003 l -0.325,-0.326 -4.606,3.889 v 3.87 l 4.606,3.889 0.325,-0.325 c 0.502,-0.502 1.38,-0.501 1.88,0.001 0.332,0.331 0.46,0.803 0.343,1.265 l -0.158,0.623 H 0 L -0.157,14.153 C -0.273,13.69 -0.146,13.217 0.184,12.889 0.689,12.381 1.563,12.386 2.065,12.886 L 2.391,13.211 6.998,9.322 V 5.452 L 2.39,1.563 2.065,1.889 C 1.562,2.393 0.686,2.392 0.186,1.888 -0.146,1.558 -0.273,1.086 -0.157,0.622 Z m -19.131,1 h 17.932 c 0.009,0.596 0.244,1.164 0.678,1.595 0.766,0.768 2.048,0.885 2.934,0.297 l 3.585,3.025 v 2.94 l -3.586,3.027 c -0.884,-0.59 -2.166,-0.476 -2.935,0.298 -0.432,0.429 -0.667,0.998 -0.676,1.593 h -17.929 c -0.009,-0.594 -0.245,-1.164 -0.679,-1.595 -0.763,-0.769 -2.046,-0.886 -2.933,-0.296 l -3.585,-3.027 v -2.94 l 3.585,-3.026 c 0.885,0.591 2.168,0.473 2.935,-0.298 0.425,-0.422 0.662,-0.998 0.674,-1.593" />
    </g>
    <g
       transform="matrix(3.7390198,0,0,-3.7390198,202.85143,54.757923)"
       id="g496">
      <path
         inkscape:connector-curvature="0"
         id="path498"
         style="fill:#ffffff;fill-opacity:1;fill-rule:nonzero;stroke:none"
         d="m 0,0 -0.001,4.865 -6.536,8.229 H -36.064 L -42.602,4.865 -42.603,0 l 6.54,-8.232 h 29.522 z" />
    </g>
    <g
       transform="matrix(3.7390198,0,0,-3.7390198,179.40925,87.642224)"
       id="g500">
      <path
         inkscape:connector-curvature="0"
         id="path502"
         style="fill:#000000;fill-opacity:1;fill-rule:nonzero;stroke:none"
         d="m 0,0 h -30.064 l -6.832,8.599 10e-4,5.257 6.829,8.595 H 0.004 L 6.831,13.856 6.832,8.599 Z m -29.521,1.125 h 28.978 l 6.25,7.866 -10e-4,4.473 -6.245,7.862 h -28.984 l -6.247,-7.862 -10e-4,-4.473 z" />
    </g>
    <g
       transform="matrix(3.7390198,0,0,-3.7390198,45.147807,46.370563)"
       id="g504">
      <path
         inkscape:connector-curvature="0"
         id="path506"
         style="fill:#000000;fill-opacity:1;fill-rule:nonzero;stroke:none"
         d="M 0,0 -0.465,0.379 8.246,11.04 8.711,10.661 Z" />
    </g>
    <g
       transform="matrix(3.7390198,0,0,-3.7390198,201.97873,46.370563)"
       id="g508">
      <path
         inkscape:connector-curvature="0"
         id="path510"
         style="fill:#000000;fill-opacity:1;fill-rule:nonzero;stroke:none"
         d="M 0,0 -8.71,10.661 -8.245,11.04 0.465,0.379 Z" />
    </g>
    <g
       transform="matrix(3.7390198,0,0,-3.7390198,75.969288,86.247211)"
       id="g512">
      <path
         inkscape:connector-curvature="0"
         id="path514"
         style="fill:#000000;fill-opacity:1;fill-rule:nonzero;stroke:none"
         d="M 0,0 -8.708,10.665 -8.243,11.044 0.465,0.379 Z" />
    </g>
    <g
       transform="matrix(3.7390198,0,0,-3.7390198,171.15726,86.247211)"
       id="g516">
      <path
         inkscape:connector-curvature="0"
         id="path518"
         style="fill:#000000;fill-opacity:1;fill-rule:nonzero;stroke:none"
         d="M 0,0 -0.465,0.379 8.243,11.044 8.708,10.665 Z" />
    </g>
  </g>
</svg>
