<?xml version="1.0" encoding="UTF-8" standalone="no"?>
<!-- Created with Inkscape (http://www.inkscape.org/) -->

<svg
   xmlns:dc="http://purl.org/dc/elements/1.1/"
   xmlns:cc="http://creativecommons.org/ns#"
   xmlns:rdf="http://www.w3.org/1999/02/22-rdf-syntax-ns#"
   xmlns:svg="http://www.w3.org/2000/svg"
   xmlns="http://www.w3.org/2000/svg"
   xmlns:sodipodi="http://sodipodi.sourceforge.net/DTD/sodipodi-0.dtd"
   xmlns:inkscape="http://www.inkscape.org/namespaces/inkscape"
   width="204.44406mm"
   height="84.220177mm"
   viewBox="0 0 204.44406 84.220177"
   version="1.1"
   id="svg4022"
   inkscape:version="0.92.3 (2405546, 2018-03-11)"
   sodipodi:docname="detail-5.svg">
  <defs
     id="defs4016" />
  <sodipodi:namedview
     id="base"
     pagecolor="#ffffff"
     bordercolor="#666666"
     borderopacity="1.0"
     inkscape:pageopacity="0.0"
     inkscape:pageshadow="2"
     inkscape:zoom="0.98994949"
     inkscape:cx="365.39692"
     inkscape:cy="-14.265138"
     inkscape:document-units="mm"
     inkscape:current-layer="layer1"
     showgrid="false"
     inkscape:window-width="1920"
     inkscape:window-height="1017"
     inkscape:window-x="-8"
     inkscape:window-y="-8"
     inkscape:window-maximized="1" />
  <metadata
     id="metadata4019">
    <rdf:RDF>
      <cc:Work
         rdf:about="">
        <dc:format>image/svg+xml</dc:format>
        <dc:type
           rdf:resource="http://purl.org/dc/dcmitype/StillImage" />
        <dc:title />
      </cc:Work>
    </rdf:RDF>
  </metadata>
  <g
     inkscape:label="Layer 1"
     inkscape:groupmode="layer"
     id="layer1"
     transform="translate(-1.4426672,-1.2422744)">
    <g
       transform="matrix(3.7512883,0,0,-3.7512883,113.02062,24.053482)"
       id="g592">
      <path
         inkscape:connector-curvature="0"
         id="path594"
         style="fill:#ffffff;fill-opacity:1;fill-rule:nonzero;stroke:none"
         d="m 0,0 c -0.714,-0.714 -1.873,-0.716 -2.588,0.002 -0.473,0.471 -0.625,1.137 -0.473,1.741 h -19.044 c 0.153,-0.604 0,-1.27 -0.473,-1.741 -0.714,-0.718 -1.873,-0.716 -2.588,-0.002 l -4.078,-3.442 v -1.703 -1.703 l 4.078,-3.442 c 0.715,0.715 1.874,0.716 2.588,-0.002 0.473,-0.47 0.626,-1.136 0.473,-1.74 h 19.044 c -0.152,0.604 0,1.27 0.473,1.74 0.715,0.718 1.874,0.717 2.588,0.002 l 4.079,3.442 v 1.703 1.703 z" />
    </g>
    <g
       transform="matrix(3.7512883,0,0,-3.7512883,103.94662,71.065379)"
       id="g596">
      <path
         inkscape:connector-curvature="0"
         id="path598"
         style="fill:#000000;fill-opacity:1;fill-rule:nonzero;stroke:none"
         d="m 0,0 h -20.329 l 0.158,0.623 c 0.117,0.462 -0.011,0.935 -0.341,1.263 -0.506,0.508 -1.38,0.505 -1.882,0.003 l -0.325,-0.326 -4.606,3.889 v 3.87 l 4.606,3.889 0.325,-0.325 c 0.502,-0.502 1.38,-0.502 1.88,0.001 0.332,0.331 0.46,0.803 0.343,1.265 l -0.158,0.623 H 0 L -0.157,14.153 C -0.273,13.69 -0.146,13.217 0.184,12.889 0.689,12.381 1.563,12.385 2.065,12.886 L 2.391,13.211 6.998,9.322 V 5.452 L 2.39,1.563 2.065,1.889 C 1.562,2.393 0.686,2.392 0.186,1.888 -0.146,1.558 -0.273,1.086 -0.157,0.622 Z m -19.131,1 h 17.932 c 0.009,0.596 0.244,1.164 0.678,1.595 0.766,0.768 2.048,0.885 2.934,0.297 l 3.585,3.025 v 2.94 l -3.586,3.027 c -0.884,-0.591 -2.166,-0.475 -2.935,0.298 -0.432,0.429 -0.667,0.998 -0.676,1.593 h -17.929 c -0.009,-0.594 -0.245,-1.164 -0.679,-1.595 -0.763,-0.769 -2.046,-0.886 -2.933,-0.296 l -3.585,-3.027 v -2.94 l 3.585,-3.026 c 0.885,0.59 2.168,0.474 2.935,-0.298 0.425,-0.422 0.662,-0.998 0.674,-1.593" />
    </g>
    <g
       transform="matrix(3.7512883,0,0,-3.7512883,203.77702,52.470251)"
       id="g600">
      <path
         inkscape:connector-curvature="0"
         id="path602"
         style="fill:#ffffff;fill-opacity:1;fill-rule:nonzero;stroke:none"
         d="m 0,0 -0.001,4.865 -6.536,8.229 H -36.064 L -42.602,4.865 -42.603,0 l 6.54,-8.232 h 29.522 z" />
    </g>
    <g
       transform="matrix(3.7512883,0,0,-3.7512883,180.25792,85.462448)"
       id="g604">
      <path
         inkscape:connector-curvature="0"
         id="path606"
         style="fill:#000000;fill-opacity:1;fill-rule:nonzero;stroke:none"
         d="m 0,0 h -30.064 l -6.832,8.599 10e-4,5.257 6.829,8.595 H 0.004 L 6.831,13.856 6.832,8.599 Z m -29.521,1.125 h 28.978 l 6.25,7.866 -10e-4,4.473 -6.245,7.862 h -28.984 l -6.247,-7.862 -10e-4,-4.473 z" />
    </g>
    <g
       transform="matrix(3.7512883,0,0,-3.7512883,51.304014,61.214504)"
       id="g616">
      <path
         inkscape:connector-curvature="0"
         id="path618"
         style="fill:#000000;fill-opacity:1;fill-rule:nonzero;stroke:none"
         d="m 0,0 -0.49,0.346 c 0.905,1.287 1.385,2.802 1.385,4.383 0,1.596 -0.488,3.125 -1.409,4.422 l 0.489,0.348 C 0.969,8.1 1.494,6.45 1.494,4.729 1.494,3.024 0.978,1.389 0,0" />
    </g>
    <g
       transform="matrix(3.7512883,0,0,-3.7512883,53.549559,47.858051)"
       id="g620">
      <path
         inkscape:connector-curvature="0"
         id="path622"
         style="fill:#ffffff;fill-opacity:1;fill-rule:nonzero;stroke:none"
         d="m 0,0 v 0.001 c 0.158,-0.069 0.334,-0.109 0.52,-0.109 0.716,0 1.296,0.58 1.296,1.296 0,0.716 -0.58,1.297 -1.296,1.297 C 0.334,2.485 0.158,2.445 0,2.376 L -0.092,2.325 C -0.133,2.304 -0.174,2.285 -0.211,2.261 L -2.146,1.188 -0.211,0.116 c 0.037,-0.025 0.078,-0.043 0.119,-0.064 z" />
    </g>
    <g
       transform="matrix(3.7512883,0,0,-3.7512883,55.498331,49.202494)"
       id="g624">
      <path
         inkscape:connector-curvature="0"
         id="path626"
         style="fill:#000000;fill-opacity:1;fill-rule:nonzero;stroke:none"
         d="m 0,0 c -0.214,0 -0.423,0.044 -0.62,0.131 l -0.112,0.06 c -0.065,0.033 -0.104,0.052 -0.14,0.078 l -2.31,1.278 2.33,1.291 c 0.019,0.013 0.056,0.032 0.094,0.052 l 0.117,0.063 C 0.443,3.438 1.546,2.613 1.547,1.547 1.547,0.694 0.853,0 0,0 M -2.15,1.547 -0.396,0.576 C -0.285,0.529 -0.144,0.5 0,0.5 c 0.577,0 1.047,0.47 1.047,1.047 0,0.577 -0.47,1.047 -1.047,1.047 -0.145,0 -0.285,-0.03 -0.419,-0.088 L -0.49,2.465 C -0.553,2.433 -0.574,2.423 -0.593,2.41 Z" />
    </g>
    <g
       transform="matrix(3.7512883,0,0,-3.7512883,57.765983,39.996468)"
       id="g628">
      <path
         inkscape:connector-curvature="0"
         id="path630"
         style="fill:#000000;fill-opacity:1;fill-rule:nonzero;stroke:none"
         d="m 0,0 c -0.017,0.059 -0.408,1.457 0.123,3.398 0.485,1.776 1.873,4.36 5.724,6.587 L 6.097,9.552 C -0.946,5.479 0.419,0.354 0.48,0.139 Z" />
    </g>
    <g
       transform="matrix(3.7512883,0,0,-3.7512883,79.698643,84.165637)"
       id="g632">
      <path
         inkscape:connector-curvature="0"
         id="path634"
         style="fill:#000000;fill-opacity:1;fill-rule:nonzero;stroke:none"
         d="m 0,0 c -3.851,2.228 -5.238,4.812 -5.724,6.587 -0.531,1.941 -0.139,3.34 -0.123,3.398 L -5.366,9.847 C -5.428,9.631 -6.793,4.507 0.25,0.434 Z" />
    </g>
    <g
       transform="matrix(3.7512883,0,0,-3.7512883,116.95496,83.550051)"
       id="g636">
      <path
         inkscape:connector-curvature="0"
         id="path638"
         style="fill:#000000;fill-opacity:1;fill-rule:nonzero;stroke:none"
         d="m 0,0 -0.488,0.105 c 0.005,0.026 0.13,0.667 -0.347,1.119 -0.432,0.41 -1.471,0.763 -3.971,0.107 -5.306,-1.389 -8.334,0.953 -8.46,1.054 l 0.312,0.391 c 0.028,-0.023 2.962,-2.287 8.021,-0.961 2.19,0.573 3.687,0.496 4.449,-0.234 C 0.192,0.933 0.009,0.038 0,0" />
    </g>
    <g
       transform="matrix(3.7512883,0,0,-3.7512883,196.41735,61.214504)"
       id="g640">
      <path
         inkscape:connector-curvature="0"
         id="path642"
         style="fill:#000000;fill-opacity:1;fill-rule:nonzero;stroke:none"
         d="m 0,0 c -0.977,1.388 -1.493,3.023 -1.493,4.729 0,1.722 0.524,3.371 1.518,4.77 L 0.514,9.151 c -0.92,-1.297 -1.408,-2.826 -1.408,-4.422 0,-1.582 0.479,-3.097 1.384,-4.383 z" />
    </g>
    <g
       transform="matrix(3.7512883,0,0,-3.7512883,194.18985,47.858051)"
       id="g644">
      <path
         inkscape:connector-curvature="0"
         id="path646"
         style="fill:#ffffff;fill-opacity:1;fill-rule:nonzero;stroke:none"
         d="m 0,0 v 0.001 c -0.158,-0.069 -0.334,-0.109 -0.52,-0.109 -0.716,0 -1.296,0.58 -1.296,1.296 0,0.716 0.58,1.297 1.296,1.297 0.186,0 0.362,-0.04 0.52,-0.109 L 0.092,2.325 C 0.133,2.304 0.174,2.285 0.211,2.261 L 2.146,1.188 0.211,0.116 C 0.174,0.091 0.133,0.073 0.092,0.052 Z" />
    </g>
    <g
       transform="matrix(3.7512883,0,0,-3.7512883,192.24105,49.202494)"
       id="g648">
      <path
         inkscape:connector-curvature="0"
         id="path650"
         style="fill:#000000;fill-opacity:1;fill-rule:nonzero;stroke:none"
         d="m 0,0 c -0.853,0 -1.547,0.694 -1.547,1.547 0,0.852 0.694,1.547 1.547,1.547 0.214,0 0.423,-0.044 0.62,-0.131 L 0.732,2.902 C 0.796,2.87 0.833,2.851 0.868,2.828 L 3.182,1.547 0.852,0.256 C 0.836,0.243 0.797,0.224 0.758,0.204 L 0.643,0.141 C 0.421,0.043 0.213,0 0,0 m 0,2.594 c -0.577,0 -1.047,-0.47 -1.047,-1.047 C -1.047,0.97 -0.577,0.5 0,0.5 0.145,0.5 0.285,0.529 0.419,0.588 L 2.15,1.547 0.609,2.4 C 0.574,2.423 0.553,2.433 0.532,2.443 L 0.398,2.516 C 0.285,2.564 0.145,2.594 0,2.594" />
    </g>
    <g
       transform="matrix(3.7512883,0,0,-3.7512883,189.97338,39.996468)"
       id="g652">
      <path
         inkscape:connector-curvature="0"
         id="path654"
         style="fill:#000000;fill-opacity:1;fill-rule:nonzero;stroke:none"
         d="m 0,0 -0.48,0.139 c 0.061,0.215 1.426,5.34 -5.617,9.413 l 0.25,0.433 C -1.996,7.758 -0.608,5.174 -0.123,3.398 0.408,1.457 0.017,0.059 0,0" />
    </g>
    <g
       transform="matrix(3.7512883,0,0,-3.7512883,168.04076,84.165637)"
       id="g656">
      <path
         inkscape:connector-curvature="0"
         id="path658"
         style="fill:#000000;fill-opacity:1;fill-rule:nonzero;stroke:none"
         d="M 0,0 -0.25,0.434 C 6.793,4.507 5.428,9.631 5.366,9.847 L 5.847,9.985 C 5.863,9.927 6.255,8.528 5.724,6.587 5.238,4.812 3.851,2.228 0,0" />
    </g>
    <g
       transform="matrix(3.7512883,0,0,-3.7512883,130.78445,83.550051)"
       id="g660">
      <path
         inkscape:connector-curvature="0"
         id="path662"
         style="fill:#000000;fill-opacity:1;fill-rule:nonzero;stroke:none"
         d="m 0,0 c -0.009,0.038 -0.192,0.933 0.484,1.581 0.763,0.73 2.258,0.807 4.449,0.234 5.054,-1.326 7.992,0.938 8.021,0.961 L 13.266,2.385 C 13.14,2.283 10.113,-0.06 4.806,1.331 2.3,1.988 1.262,1.632 0.83,1.22 0.354,0.763 0.487,0.112 0.488,0.105 Z" />
    </g>
    <g
       transform="matrix(3.7512883,0,0,-3.7512883,68.360372,13.569016)"
       id="g664">
      <path
         inkscape:connector-curvature="0"
         id="path666"
         style="fill:#000000;fill-opacity:1;fill-rule:nonzero;stroke:none"
         d="m 0,0 -0.312,0.392 c 0.127,0.101 3.152,2.444 8.46,1.053 2.508,-0.658 3.546,-0.301 3.976,0.112 0.477,0.457 0.343,1.107 0.343,1.107 l 0.487,0.112 C 12.963,2.738 13.146,1.844 12.47,1.195 11.708,0.467 10.211,0.389 8.021,0.961 2.966,2.29 0.028,0.024 0,0" />
    </g>
    <g
       transform="matrix(3.7512883,0,0,-3.7512883,179.37903,13.569016)"
       id="g668">
      <path
         inkscape:connector-curvature="0"
         id="path670"
         style="fill:#000000;fill-opacity:1;fill-rule:nonzero;stroke:none"
         d="m 0,0 c -0.029,0.024 -2.963,2.29 -8.021,0.961 -2.191,-0.572 -3.686,-0.494 -4.449,0.234 -0.676,0.649 -0.493,1.543 -0.484,1.581 l 0.488,-0.105 c -0.005,-0.025 -0.13,-0.667 0.347,-1.118 0.431,-0.41 1.472,-0.764 3.971,-0.108 5.309,1.389 8.333,-0.953 8.46,-1.053 z" />
    </g>
  </g>
</svg>
