<?xml version="1.0" encoding="UTF-8" standalone="no"?>
<!-- Created with Inkscape (http://www.inkscape.org/) -->

<svg
   xmlns:dc="http://purl.org/dc/elements/1.1/"
   xmlns:cc="http://creativecommons.org/ns#"
   xmlns:rdf="http://www.w3.org/1999/02/22-rdf-syntax-ns#"
   xmlns:svg="http://www.w3.org/2000/svg"
   xmlns="http://www.w3.org/2000/svg"
   xmlns:sodipodi="http://sodipodi.sourceforge.net/DTD/sodipodi-0.dtd"
   xmlns:inkscape="http://www.inkscape.org/namespaces/inkscape"
   width="203.47253mm"
   height="56.432926mm"
   viewBox="0 0 203.47253 56.432926"
   version="1.1"
   id="svg13757"
   inkscape:version="0.92.3 (2405546, 2018-03-11)"
   sodipodi:docname="fireball.svg">
  <defs
     id="defs13751">
    <clipPath
       id="clipPath8738"
       clipPathUnits="userSpaceOnUse">
      <path
         inkscape:connector-curvature="0"
         id="path8736"
         d="M 0,0 H 612 V 792 H 0 Z" />
    </clipPath>
  </defs>
  <sodipodi:namedview
     id="base"
     pagecolor="#ffffff"
     bordercolor="#666666"
     borderopacity="1.0"
     inkscape:pageopacity="0.0"
     inkscape:pageshadow="2"
     inkscape:zoom="0.35"
     inkscape:cx="385.94358"
     inkscape:cy="-318.61608"
     inkscape:document-units="mm"
     inkscape:current-layer="layer1"
     showgrid="false"
     inkscape:window-width="1920"
     inkscape:window-height="1017"
     inkscape:window-x="-8"
     inkscape:window-y="-8"
     inkscape:window-maximized="1" />
  <metadata
     id="metadata13754">
    <rdf:RDF>
      <cc:Work
         rdf:about="">
        <dc:format>image/svg+xml</dc:format>
        <dc:type
           rdf:resource="http://purl.org/dc/dcmitype/StillImage" />
        <dc:title />
      </cc:Work>
    </rdf:RDF>
  </metadata>
  <g
     inkscape:label="Layer 1"
     inkscape:groupmode="layer"
     id="layer1"
     transform="translate(-3.7190933,-8.0999019)">
    <g
       id="g8732"
       transform="matrix(0.92945743,0,0,-0.92945743,-36.767996,726.83068)">
      <g
         id="g8734"
         clip-path="url(#clipPath8738)">
        <g
           id="g8740"
           transform="translate(55.0007,733.915)">
          <path
             d="m 0,0 v 12.239 h 7.56 c 0,0 3.8,-1.8 9.64,6.481 h 12.68 l 5.04,3.548 c 0,0 4.32,6.171 8.28,6.171 3.96,0 19.72,7.201 19.72,7.201 l 17,3.724 20.16,-5.885 10.72,-4.32 c 0,0 16.37,-6.088 14.12,-15.959 0,0 1.96,8.22 -14.12,13.8 0,0 8.72,-6.361 6.92,-10.08 0,0 9.36,-6.451 10.8,-11.687 0,0 20.88,-6.191 29.16,7.967 0,0 -2.95,-6.691 -5.76,-7.967 0,0 19.44,-11.591 38.16,7.967 0,0 -13.48,-11.761 -12.6,-16.621 l -53.28,1.62 c 0,0 0.552,23.517 -32.664,25.561 C 58.32,25.804 54.72,9.18 57.42,2.88 Z"
             style="fill:#ffffff;fill-opacity:1;fill-rule:nonzero;stroke:none"
             id="path8742"
             inkscape:connector-curvature="0" />
        </g>
        <g
           id="g8744"
           transform="translate(149.7205,735.3544)">
          <path
             d="m 0,0 c 0,0 6.08,22.32 26.96,-3.24 0,0 -14.569,28.44 -30.144,3.96 z"
             style="fill:#ffffff;fill-opacity:1;fill-rule:nonzero;stroke:none"
             id="path8746"
             inkscape:connector-curvature="0" />
        </g>
        <g
           id="g8748"
           transform="translate(188.7473,728.449)">
          <path
             d="m 0,0 c 0.793,-3.441 1.211,-7.177 1.159,-11.244 0,0 0.629,4.801 -1.159,11.244 m -98.202,15.517 -0.168,-0.317 -0.312,-0.177 0.318,-0.168 0.178,-0.311 0.166,0.317 0.313,0.176 -0.318,0.169 z m -20.039,-13.435 -0.301,-0.572 -0.562,-0.32 0.572,-0.301 0.319,-0.563 0.301,0.572 0.563,0.32 -0.572,0.302 z m 21.964,15.613 -0.418,-0.795 -0.78,-0.442 0.794,-0.418 0.444,-0.78 0.417,0.794 0.779,0.443 -0.793,0.418 z m -2.998,-3.2 -0.158,-0.303 -0.296,-0.167 0.301,-0.159 0.168,-0.295 0.159,0.301 0.295,0.169 -0.3,0.158 z m -24.405,-12.702 -0.27,-0.512 -0.504,-0.286 0.513,-0.269 0.285,-0.503 0.269,0.511 0.504,0.287 -0.512,0.269 z m 1.865,-0.931 -0.2,-0.383 -0.377,-0.212 0.383,-0.201 0.213,-0.378 0.201,0.384 0.376,0.213 -0.383,0.201 z m -0.304,-1.464 -0.148,-0.282 -0.279,-0.159 0.284,-0.149 0.157,-0.28 0.151,0.284 0.279,0.159 -0.284,0.15 z M 23.62,4.293 C 23.625,3.991 23.874,3.749 24.177,3.755 24.479,3.759 24.72,4.009 24.715,4.311 24.71,4.613 24.461,4.855 24.158,4.849 23.856,4.845 23.615,4.595 23.62,4.293 m 5.675,4.655 c 0.252,0.004 0.453,0.211 0.449,0.463 C 29.74,9.663 29.532,9.865 29.28,9.859 29.028,9.856 28.827,9.648 28.831,9.396 28.835,9.144 29.043,8.944 29.295,8.948 M 25.954,6.703 C 26.458,6.711 26.86,7.126 26.852,7.63 26.844,8.134 26.429,8.537 25.924,8.528 25.42,8.52 25.019,8.105 25.027,7.601 25.035,7.097 25.45,6.695 25.954,6.703 m 29.388,17.084 c 0.251,0.004 0.452,0.212 0.448,0.464 -0.004,0.252 -0.212,0.452 -0.463,0.448 -0.253,-0.003 -0.454,-0.211 -0.449,-0.463 0.003,-0.253 0.211,-0.453 0.464,-0.449 m -3.591,-3.708 c 0.554,0.009 0.995,0.466 0.986,1.019 -0.008,0.555 -0.465,0.997 -1.019,0.988 -0.555,-0.009 -0.996,-0.465 -0.987,-1.02 0.008,-0.554 0.465,-0.996 1.02,-0.987 m -3.508,-3.251 c 0.003,-0.252 0.212,-0.453 0.463,-0.449 0.253,0.005 0.454,0.212 0.45,0.463 -0.004,0.253 -0.212,0.454 -0.464,0.449 -0.252,-0.004 -0.453,-0.211 -0.449,-0.463 m 0.706,1.477 0.281,0.532 0.522,0.297 -0.532,0.28 -0.297,0.523 -0.281,-0.532 -0.522,-0.298 0.532,-0.28 z m 2.583,-1.697 0.313,0.595 0.585,0.331 -0.595,0.313 -0.332,0.585 -0.313,-0.595 -0.584,-0.332 0.594,-0.313 z m 21.601,16.185 -0.332,0.585 -0.313,-0.595 -0.584,-0.332 0.595,-0.313 0.332,-0.584 0.312,0.594 0.585,0.332 z m -4.675,-1.77 -0.531,-1.009 -0.992,-0.564 1.009,-0.531 0.564,-0.992 0.531,1.009 0.993,0.564 -1.01,0.531 z m 2.236,-2.821 -0.177,-0.337 -0.331,-0.188 0.337,-0.176 0.188,-0.332 0.177,0.337 0.331,0.188 -0.337,0.176 z m -2.172,-1.129 -0.365,-0.695 -0.683,-0.387 0.695,-0.365 0.387,-0.684 0.366,0.696 0.681,0.386 -0.694,0.366 z M 36.372,4.794 C 30.034,5.608 21.599,6.221 15.715,4.862 14.285,4.17 11.87,2.668 13.088,0.838 c 1.152,-1.73 16.85,0.106 23.284,3.956 m 28.385,29.367 c 0,0 2.313,-7.629 1.124,-13.124 0,0 0.1,5.111 -1.887,3.802 -1.986,-1.309 -10.085,-8.559 -3.82,-12.108 0,0 -14.049,-0.409 -14.999,-9.369 0,0 -3.184,0.665 -7.668,1.28 C 36.922,4.231 36.205,3.811 35.317,3.386 26.989,-0.594 5.795,-5.107 11.896,3.467 9.105,1.897 7.84,-0.665 9.345,-4.698 c 0,0 -4.883,8.5 7.852,11.078 0,0 -2.94,1.231 -1.316,2.351 0,0 11.85,-4.3 22.581,-2.212 1.09,1.412 0.875,3.01 -1.447,4.743 0,0 3.604,-1.916 2.423,-4.535 2.93,0.684 5.746,1.869 8.176,3.793 0,0 -3.815,-1.156 -5.633,-1.55 0,0 3.401,1.283 7.666,4.343 l -0.283,0.498 -1.388,0.731 1.363,0.774 0.732,1.389 0.774,-1.364 0.861,-0.453 c 4.899,3.976 10.357,10.176 13.051,19.273 M -10.33,1.664 c -0.01,-0.029 -0.019,-0.056 -0.03,-0.082 0.012,0.026 0.02,0.055 0.03,0.082 m 0.007,0.019 c -0.003,-0.007 -0.004,-0.013 -0.007,-0.019 0.003,0.006 0.005,0.012 0.007,0.019 M -10.36,1.582 c -0.081,-0.194 -0.175,-0.387 -0.284,-0.579 0,0 0.146,0.206 0.284,0.579 m -66.024,4.784 -0.319,-0.606 -0.596,-0.339 0.607,-0.319 0.338,-0.596 0.319,0.606 0.595,0.339 -0.605,0.32 z m -2.66,2.897 -0.282,-0.536 -0.527,-0.298 0.535,-0.282 0.3,-0.527 0.282,0.537 0.526,0.298 -0.535,0.282 z m -3.031,-1.169 -0.445,-0.847 -0.833,-0.474 0.848,-0.443 0.471,-0.833 0.446,0.848 0.832,0.471 -0.847,0.446 z m 77.244,9.083 0.353,0.669 0.657,0.374 -0.669,0.352 -0.374,0.658 -0.352,-0.67 -0.657,-0.373 0.669,-0.353 z m 26.631,-3.736 -0.212,-0.402 -0.394,-0.224 0.402,-0.212 0.224,-0.395 0.211,0.403 0.395,0.224 -0.402,0.211 z m -6.557,1.489 0.536,1.019 1.002,0.57 -1.019,0.536 -0.569,1.002 -0.537,-1.019 -1.001,-0.569 1.019,-0.538 z m -5.325,-2.933 0.268,0.51 0.501,0.284 -0.51,0.268 -0.284,0.501 -0.269,-0.51 -0.5,-0.285 0.509,-0.267 z m -3.15,0.877 0.34,-0.18 0.19,-0.336 0.18,0.341 0.335,0.191 -0.341,0.18 -0.191,0.335 -0.179,-0.341 z M 6.108,14.16 6.51,14.923 7.259,15.349 6.496,15.751 6.07,16.501 5.669,15.738 4.918,15.311 5.682,14.909 Z m -3.164,-1.896 0.537,1.019 1.001,0.569 -1.019,0.537 -0.57,1.002 -0.536,-1.019 -1.001,-0.57 1.019,-0.536 z m -32.708,11.459 0.459,0.873 0.857,0.487 -0.873,0.46 -0.487,0.856 -0.459,-0.871 -0.858,-0.489 0.873,-0.458 z m -2.138,3.876 -0.335,-0.635 -0.624,-0.356 0.635,-0.334 0.355,-0.624 0.334,0.636 0.624,0.355 -0.635,0.335 z m 15.805,-3.3 c -1.538,4.643 -8.805,11.889 -38.168,14.541 0,0 7.663,-0.716 17.288,-3.885 -0.071,-0.165 -0.114,-0.346 -0.111,-0.537 0.011,-0.722 0.605,-1.297 1.327,-1.285 0.599,0.01 1.075,0.428 1.221,0.98 6.023,-2.182 12.596,-5.321 18.443,-9.814 m -16.589,7.25 c -0.002,0.12 -0.101,0.216 -0.221,0.214 -0.121,-0.002 -0.217,-0.101 -0.215,-0.221 0.002,-0.121 0.102,-0.217 0.222,-0.215 0.12,0.002 0.216,0.101 0.214,0.222 m -1.103,0.853 c -0.002,0.18 -0.151,0.324 -0.331,0.322 -0.181,-0.003 -0.325,-0.153 -0.322,-0.333 0.003,-0.18 0.151,-0.324 0.332,-0.32 0.181,0.003 0.325,0.151 0.321,0.331 m -5.151,2.096 c -0.005,0.299 -0.253,0.54 -0.554,0.534 -0.301,-0.004 -0.54,-0.252 -0.535,-0.552 0.005,-0.301 0.252,-0.541 0.552,-0.536 0.302,0.005 0.542,0.252 0.537,0.554 m -1.179,-1.217 c -0.004,0.3 -0.252,0.54 -0.553,0.535 -0.301,-0.004 -0.54,-0.253 -0.535,-0.552 0.004,-0.302 0.252,-0.541 0.552,-0.537 0.301,0.005 0.541,0.253 0.536,0.554 m -2.534,1.81 c -0.004,0.3 -0.252,0.541 -0.553,0.536 -0.301,-0.005 -0.541,-0.253 -0.536,-0.554 0.005,-0.301 0.253,-0.54 0.554,-0.535 0.3,0.004 0.541,0.252 0.535,0.553 m -2.543,0.176 -0.474,0.25 -0.264,0.465 -0.249,-0.473 -0.465,-0.265 0.473,-0.25 0.264,-0.464 0.249,0.472 z m -2.459,-0.619 -0.473,0.248 -0.264,0.465 -0.249,-0.474 -0.465,-0.262 0.473,-0.249 0.264,-0.465 0.249,0.472 z m 10.304,2.597 c 0,0 -10.868,5.379 -28.158,3.793 0,0 -3.866,-3.328 -9.522,-3.746 0,0 -11.477,-4.105 -17.156,-9.859 0,0 2.576,2.327 5.093,1.605 0,0 24.311,18.578 49.743,8.207 M -90.998,21.932 c 1.096,1.096 7.929,7.839 7.929,7.839 0,0 -7.582,-5.673 -12.498,-6.353 -2.181,-0.303 -6.391,-0.024 -11.465,-0.659 -3.118,-1.563 -7.855,-3.814 -8.048,-3.176 -0.113,0.372 0.294,1.004 0.83,1.635 -4.533,-1.416 -9.29,-3.861 -13.663,-8.134 0,0 -2.412,-1.533 -1.822,-1.871 0.591,-0.337 1.18,-0.675 1.18,-0.675 0,0 -3.036,-2.022 -2.194,-3.287 0.845,-1.264 8.113,4.162 8.113,4.162 0,0 -3.257,-3.557 -5.903,-5.394 -2.648,-1.837 -2.565,-4.703 -2.077,-6.423 0,0 0.978,-4.034 5.918,-2.92 l -0.299,0.525 -0.955,0.503 0.938,0.533 0.504,0.954 0.533,-0.937 0.955,-0.502 -0.939,-0.534 -0.216,-0.411 c 0.279,0.08 0.559,0.162 0.861,0.273 6.157,2.275 13.778,0.484 17.016,-0.208 3.236,-0.693 7.302,4.061 9.31,8.832 0,0 0.978,-0.151 2.277,1.516 0,0 -1.046,-2.596 -0.373,-3.608 0.675,-1.012 2.226,-0.271 2.547,0.454 l -0.724,1.417 c 0,0 2.445,1.265 3.981,4.333 1.535,3.069 0.044,6.239 -1.145,7.529 0,0 1.164,-1.088 1.585,-1.721 0,0 0.686,5.498 3.604,7.917 0,0 -5.339,-3.338 -6.182,-3.716 -0.844,-0.38 -0.675,1.011 0.422,2.107 m -5.689,-22.315 c -5.784,-6.391 -11.164,-3.875 -11.164,-3.875 5.417,-4.843 11.164,3.875 11.164,3.875 m -2.129,26.945 c 0.004,-0.24 0.202,-0.43 0.443,-0.427 0.24,0.004 0.432,0.201 0.428,0.442 -0.004,0.24 -0.201,0.433 -0.442,0.429 -0.241,-0.004 -0.433,-0.202 -0.429,-0.444 m 3.008,2.555 c 0.006,-0.361 0.304,-0.649 0.664,-0.643 0.361,0.005 0.648,0.303 0.642,0.663 -0.006,0.361 -0.302,0.649 -0.663,0.643 -0.361,-0.006 -0.648,-0.303 -0.643,-0.663 m 1.327,-1.286 c 0.004,-0.241 0.203,-0.433 0.443,-0.427 0.241,0.003 0.432,0.2 0.429,0.441 -0.004,0.241 -0.202,0.433 -0.443,0.428 -0.24,-0.003 -0.433,-0.201 -0.429,-0.442 m 2.038,1.993 c -0.361,-0.007 -0.649,-0.302 -0.643,-0.663 0.006,-0.361 0.303,-0.65 0.664,-0.643 0.361,0.005 0.649,0.303 0.642,0.664 -0.005,0.36 -0.303,0.648 -0.663,0.642 m -1.22,1.76 0.682,-0.36 0.381,-0.671 0.358,0.683 0.672,0.381 -0.683,0.359 -0.381,0.672 -0.359,-0.683 z M 0.435,6.521 C 0.162,6.773 -1.05,7.328 -2.823,8.171 -1.642,5.653 -0.678,2.94 0,0 c -0.736,2.652 -1.893,5.583 -3.663,8.571 -3.21,1.542 -7.823,3.883 -12.185,6.981 4.938,-3.846 12.618,-10.32 11.877,-12.856 0,0 -0.377,1.004 -1.099,0.678 -0.642,-0.289 -2.731,-2.847 -5.184,-1.491 -0.023,-0.067 -0.043,-0.134 -0.069,-0.2 0.021,0.064 0.043,0.132 0.062,0.204 -0.298,0.166 -0.601,0.378 -0.908,0.672 0,0 0.409,-0.225 0.972,-0.396 0.363,1.807 -0.186,5.52 -8.287,9.666 0,0 -2.744,0.32 -2.892,-1.872 0,0 -8.65,4.424 -9.144,1.131 -0.495,-3.294 4.27,-4.495 4.27,-4.495 l -9.121,-0.33 c 0,0 -0.803,4.551 2.237,8.433 0,0 -0.15,-2.01 1.666,-1.434 1.816,0.577 5.767,4.657 4.63,7.194 0,0 4.038,-1.394 6.26,-3.367 2.089,-1.853 12.155,-8.897 10.418,-14.936 1.14,-0.337 2.891,-0.431 3.296,1.968 0.496,2.949 -7.222,9.89 -11.075,12.994 -0.109,0.087 -0.218,0.174 -0.327,0.262 -0.179,0.142 -0.348,0.276 -0.505,0.396 0.07,-0.051 0.148,-0.109 0.224,-0.166 -2.451,2.002 -4.697,4.26 -6.399,6.772 0,0 7.873,-7.719 18.279,-11.485 -2.26,2.798 -5.147,5.558 -8.849,8.097 -0.136,-0.299 -0.307,-0.574 -0.529,-0.815 0,0 0.161,0.37 0.254,1.007 -8.24,5.564 -20.418,10.037 -38.391,11.502 0,0 -15.936,0.344 -15.079,-7.633 0,0 -0.27,-2.225 3.135,-3.172 0,0 -3.575,0.103 -5.699,0.66 0,0 0.422,1.013 -0.539,1.029 -0.961,0.017 -14.016,-8.458 -13.394,-14.546 0,0 3.287,-10e-4 6.36,6.135 0,0 -1.504,-4.433 -2.347,-6.457 0,0 -4.201,-1.482 -5.128,-5.023 -0.929,-3.541 -1.84,-5.025 -1.84,-5.025 0,0 -15.342,-12.837 -28.659,-14.445 0,0 -5.943,-0.741 -10.103,1.959 l 2.402,0.1 c 0,0 -9.236,1.464 -13.171,7.209 -3.935,5.747 -8.091,18.104 -6.652,25.93 0,0 0.89,-7.133 3.587,-11.02 0,0 2.583,22.853 21.879,35.922 0,0 -5.253,-6.287 -5.13,-8.89 0,0 -2.08,0.546 -4.507,-4.182 -2.429,-4.728 -2.209,-12.949 4.329,-12.135 6.537,0.815 8.099,7.649 7.036,11.34 0,0 1.142,-2.927 3.812,-2.08 2.668,0.847 5.159,3.109 5.159,3.109 0,0 -1.532,-5.842 8.638,-3.341 l -2.921,0.354 c 0,0 14.737,11.189 23.25,14.612 0,0 -7.198,-4.082 -11.853,-7.951 0,0 23.09,13.7 46.342,8.515 0.661,-0.147 1.287,-0.318 1.927,-0.479 l -0.084,0.043 c 0,0 0.191,-0.058 0.534,-0.156 0.614,-0.158 1.22,-0.32 1.814,-0.491 3.922,-1.022 11.772,-2.808 15.773,-1.908 0,0 -3.434,-1.24 -2.987,-2.427 0.448,-1.187 7.588,-3.712 7.588,-3.712 0,0 -2.069,-0.614 -0.148,-2.553 l -0.039,0.02 c 3.247,-2.99 5.132,-5.962 5.588,-8.32 3.892,-3.11 7.423,-6.842 10.211,-11.313 8.504,-2.673 18.456,-2.454 27.137,6.614 0,0 -4.356,-5.856 -4.021,-7.085 0.336,-1.23 3.352,-1.399 3.352,-1.399 l 0.861,-1.799 c 0,0 -7.275,3.724 -14.083,-0.665 0,0 0.525,-1.297 4.336,-0.551 0,0 -0.581,-0.435 -2.985,-0.825 C 7.097,6.262 5.051,5.916 7.956,3.01 c 0,0 -3.163,0.604 -8.471,2.395 0,0 2.079,0.078 0.95,1.116 m -20.271,12.032 c 0.217,-0.14 0.587,-0.409 1.065,-0.78 -0.666,0.494 -1.065,0.78 -1.065,0.78"
             style="fill:#000000;fill-opacity:1;fill-rule:nonzero;stroke:none"
             id="path8750"
             inkscape:connector-curvature="0" />
        </g>
        <g
           id="g8752"
           transform="translate(66.757,746.6401)">
          <path
             d="m 0,0 c 0,0 -6.538,-4.643 -4.737,-6.253 1.8,-1.61 4.642,1.421 4.642,1.421 0,0 -0.852,-2.179 0,-2.463 0.853,-0.284 3.979,3.126 9.19,1.61 0,0 -4.737,-0.189 -3.695,-3.126 l -16.769,-1.042 0.19,4.358 c 0,0 6.537,5.305 11.179,5.495"
             style="fill:#000000;fill-opacity:1;fill-rule:nonzero;stroke:none"
             id="path8754"
             inkscape:connector-curvature="0" />
        </g>
        <g
           id="g8756"
           transform="translate(90.2839,738.7195)">
          <path
             d="m 0,0 c 0,0 3.655,-0.086 5.047,2.61 0,0 0.347,-1.13 1.479,-0.782 1.131,0.347 2.523,2.088 1.827,3.828 0,0 1.305,-2.002 0.261,-4.003 0,0 -1.654,-0.87 -1.566,-1.914 z"
             style="fill:#000000;fill-opacity:1;fill-rule:nonzero;stroke:none"
             id="path8758"
             inkscape:connector-curvature="0" />
        </g>
        <g
           id="g8760"
           transform="translate(61.7542,740.7986)">
          <path
             d="m 0,0 c 0,0 -0.97,1.973 0.78,5.035 0,0 -1.048,-2.912 0.375,-3.562 z"
             style="fill:#ffffff;fill-opacity:1;fill-rule:nonzero;stroke:none"
             id="path8762"
             inkscape:connector-curvature="0" />
        </g>
      </g>
    </g>
  </g>
</svg>
