<?xml version="1.0" encoding="UTF-8" standalone="no"?>
<!-- Created with Inkscape (http://www.inkscape.org/) -->

<svg
   xmlns:dc="http://purl.org/dc/elements/1.1/"
   xmlns:cc="http://creativecommons.org/ns#"
   xmlns:rdf="http://www.w3.org/1999/02/22-rdf-syntax-ns#"
   xmlns:svg="http://www.w3.org/2000/svg"
   xmlns="http://www.w3.org/2000/svg"
   xmlns:sodipodi="http://sodipodi.sourceforge.net/DTD/sodipodi-0.dtd"
   xmlns:inkscape="http://www.inkscape.org/namespaces/inkscape"
   width="202.40887mm"
   height="195.86606mm"
   viewBox="0 0 202.40887 195.86606"
   version="1.1"
   id="svg4343"
   inkscape:version="0.92.3 (2405546, 2018-03-11)"
   sodipodi:docname="logo small.svg">
  <defs
     id="defs4337" />
  <sodipodi:namedview
     id="base"
     pagecolor="#ffffff"
     bordercolor="#666666"
     borderopacity="1.0"
     inkscape:pageopacity="0.0"
     inkscape:pageshadow="2"
     inkscape:zoom="0.7"
     inkscape:cx="433.44994"
     inkscape:cy="419.62696"
     inkscape:document-units="mm"
     inkscape:current-layer="layer1"
     showgrid="false"
     inkscape:window-width="1920"
     inkscape:window-height="1017"
     inkscape:window-x="-8"
     inkscape:window-y="-8"
     inkscape:window-maximized="1" />
  <metadata
     id="metadata4340">
    <rdf:RDF>
      <cc:Work
         rdf:about="">
        <dc:format>image/svg+xml</dc:format>
        <dc:type
           rdf:resource="http://purl.org/dc/dcmitype/StillImage" />
        <dc:title />
      </cc:Work>
    </rdf:RDF>
  </metadata>
  <g
     inkscape:label="Layer 1"
     inkscape:groupmode="layer"
     id="layer1"
     transform="translate(-1.2905881,-1.6688878)">
    <path
       inkscape:connector-curvature="0"
       id="path1716"
       style="fill:#000000;fill-opacity:1;fill-rule:nonzero;stroke:none;stroke-width:12.87669468"
       d="m 28.872433,57.067774 c -0.42487,-3.322309 -0.193455,-6.73452 0.785499,-9.799169 l 4.326593,-13.481888 5.433958,13.056945 c 1.583772,3.798645 4.918893,6.567126 8.872047,9.090979 -0.346758,-6.270959 0.772723,-13.237259 3.013147,-18.027378 -0.463561,-10.108222 6.528472,-17.666821 14.87257,-17.666821 14.280272,0 18.10465,17.280496 11.473136,29.655021 3.077388,4.63561 7.764647,8.936434 11.910963,12.670656 1.480841,1.339217 2.884299,2.601052 4.12051,3.78576 0.38618,0.39932 0.592409,0.746808 0.978589,1.132987 C 100.86602,59.07638 105.41151,47.358616 105.41151,38.499417 105.41151,20.137254 93.474809,3.1013858 68.648524,1.7622054 52.900334,0.92524053 42.2642,5.7797465 34.345045,13.853447 30.765404,17.52328 22.794637,26.768768 24.314095,43.508468 c 0.579634,6.309576 2.691209,10.713406 4.558338,13.55916 M 95.432058,142.0023 c -5.678622,9.61889 -17.576664,22.04492 -29.680754,22.04492 -22.315317,0 -33.505169,-31.52215 -8.627418,-57.37856 -1.403458,-0.45079 -2.768591,-0.51503 -3.244927,-0.51503 -2.0988,0 -4.159165,0.55372 -5.511193,1.48084 l -11.009575,9.45146 3.103304,-15.38763 c 0.193455,-0.5278 0.386179,-1.0432 0.605184,-1.55822 -5.524114,2.80728 -10.880799,6.68301 -12.94109,8.92355 l -9.966563,10.85503 1.004504,-15.31037 0.682567,-3.37377 C 20.361124,98.852472 20.979084,95.877797 20.60568,94.912057 20.477927,94.6164 20.244321,94.384254 19.961804,94.178024 15.339079,97.744889 2.7713918,108.84451 1.2905881,125.33958 c 0,0 2.4466532,-3.46393 4.5841076,-4.27509 1.4034584,-0.54094 2.6269675,0.1533 1.2877506,4.27509 -0.5150272,1.60969 -12.7479283,34.68981 11.2928577,57.58458 0,0 -2.639743,-6.70875 -1.04283,-8.76905 0.772724,-0.97858 1.776862,-1.06874 3.193461,0.70812 1.017279,1.37791 2.086025,2.69121 3.257703,3.97889 v 0.0261 l 0.01285,-0.0126 c 1.983092,2.26634 4.172049,4.40383 6.554242,6.24519 7.185196,5.0219 16.958632,9.07806 28.071212,9.07806 29.603518,0 45.300208,-20.2808 54.056358,-37.44544 -0.39895,-0.48948 -0.69534,-0.99137 -1.23628,-1.46807 -4.48107,-3.94027 -10.97092,-9.32272 -15.88985,-13.26299 m 67.24215,-58.653934 c -22.12215,1.068745 -41.07665,19.817234 -50.8887,33.080224 1.75131,0.59241 3.51539,1.40346 5.26656,2.79414 2.04733,1.64838 5.04767,4.09482 8.27971,6.77318 2.62697,-5.79455 8.53726,-17.51232 17.60244,-27.903822 8.27974,-9.477268 22.70164,-10.391505 30.26024,-4.609877 4.86739,-4.416678 21.65859,-8.550109 30.5049,-6.039141 -5.3696,-5.858901 -16.82985,-13.713705 -29.47478,-13.713705 -10.43012,0 -16.32764,5.124941 -17.83421,2.820057 -1.91849,-2.935765 7.05642,-7.30105 7.05642,-7.30105 -12.32298,0.515027 -21.27227,14.988461 -25.00653,13.211489 -2.22764,-1.08152 3.32231,-8.086584 3.32231,-8.086584 -11.26712,6.541357 -20.70573,20.40957 -22.66298,28.843793 10.36573,-12.683545 30.49202,-21.787373 43.57473,-19.868741 m -71.298275,9.06521 -0.965813,-3.141995 C 90.30814,88.935806 87.873532,81.262301 79.671166,78.249155 L 75.1901,76.588 l 1.300526,4.596993 c 1.120212,3.940268 3.193461,11.22847 11.601911,11.22847 z M 30.546655,73.665157 C 31.512468,69.866511 23.992413,63.389542 21.198162,62.179136 31.512395,61.767042 36.65022,63.698668 36.65022,63.698668 33.959011,59.732629 33.083356,53.654833 34.615662,48.85183 40.242782,62.333718 60.343299,64.497015 65.32658,75.699715 64.618463,70.858094 60.060016,65.44987 54.767682,62.282215 51.922074,54.929626 54.04679,41.383351 57.510357,37.661978 56.299988,57.131541 84.074959,68.26989 89.856624,82.408502 86.470073,70.291527 73.516098,62.629886 67.361029,55.354569 65.339246,50.551529 66.910243,42.387709 69.0992,39.606342 c -0.65665,13.031212 13.417501,23.203821 20.950367,30.492023 8.846278,8.588764 11.370133,16.173133 10.172613,22.379704 1.93162,0.515028 4.60984,2.395187 4.15916,5.588466 2.83283,-0.656651 5.71724,-3.914499 6.3997,-5.897519 1.39068,9.670394 -4.30079,19.920244 -10.6619,22.972044 0,0 1.72539,-4.62276 -1.197598,-8.15098 -2.871524,-3.48948 -10.99669,-3.54094 -13.765171,-3.3223 0,0 3.38655,-5.009019 2.034558,-7.545719 -1.648379,-3.12922 -17.576701,-1.764087 -24.69751,0.824189 2.420738,-0.259156 8.176706,0.386179 10.172573,1.223144 -1.120211,1.661155 -4.043274,8.678886 -1.931626,10.777796 1.931626,1.91848 4.468218,-1.42938 4.468218,-1.42938 0,0 -2.485344,7.68738 -0.721257,9.46435 1.790002,1.76409 5.601386,0.51503 5.601386,0.51503 -2.369271,6.00052 -11.640528,10.15969 -18.091765,10.15969 2.30503,-0.73404 6.116451,-4.86739 6.695902,-7.31397 -1.699845,0.83696 -6.11645,1.32644 -7.829035,1.01727 2.0988,-0.84974 6.296692,-6.27095 4.970397,-12.3101 -1.892935,-8.84631 -14.241617,-9.966558 -20.422419,-5.6915 1.995868,-5.949024 7.996428,-11.511757 12.709274,-13.327383 -2.742675,-0.965813 -5.974791,-1.776862 -9.438613,-2.395187 3.940268,-3.232152 13.855328,-5.871749 18.902996,-5.588465 -7.700259,-1.995868 -21.800253,0.476336 -28.251489,8.112318 2.047333,0 7.378358,1.004504 9.43865,1.648379 -8.872047,1.609688 -20.911749,9.850668 -24.478614,13.739438 0.939897,-5.1249 2.382046,-9.451499 1.158902,-12.541881 C 23.747054,88.69209 18.480599,86.85073 7.9732401,89.014027 15.068279,81.931837 29.567446,77.528007 30.546071,73.665011 M 196.88721,158.84431 c 0,14.65368 -14.5764,26.0882 -31.08432,23.75751 4.21066,3.92742 14.40901,6.59289 19.84296,4.13343 -3.1033,5.61423 -18.04022,13.57204 -32.12733,9.83778 -13.18576,-3.51539 -18.98027,-16.12163 -19.31506,-24.1309 -6.2323,6.2323 -4.54545,16.39203 -0.1022,20.40953 -5.15067,-1.33922 -12.90244,-6.68298 -14.21588,-16.27614 -1.10744,-8.24105 3.47671,-17.65393 -5.12491,-25.22542 -5.13782,-4.51972 -12.95397,-10.98384 -18.01449,-14.96273 -10.610401,-8.30548 -6.592896,-14.40901 -8.975089,-18.79999 -1.828328,-3.38655 -6.283807,-5.2923 -8.949283,-8.38271 -2.691209,-3.11608 -2.588276,-7.73888 -1.08152,-10.39151 -0.450786,3.70849 2.201732,6.47701 5.730125,7.64876 3.914499,1.28775 7.210929,0.219 10.546013,2.1634 4.017505,2.31781 2.150266,8.58877 5.060517,10.81645 2.613827,1.96995 9.129597,-0.64387 14.692327,3.83723 5.58847,4.4811 18.10462,14.89834 23.49996,19.34082 9.69616,7.98355 19.70134,-1.12021 16.37918,-10.26273 9.85067,5.83313 10.9323,22.14793 2.74267,27.8394 7.71311,1.75131 21.63283,-1.69985 21.63283,-12.87667 0,-6.83752 -6.30958,-11.6663 -10.81642,-12.42603 15.82547,-1.48084 29.68079,9.6189 29.68079,23.95067"
       sodipodi:nodetypes="ccccccsccccscccccscsccccccccccccccccccccsccccccccccscccccccccccsccccccccccccccccccccccccccccccccccccccccccccccccccccccccccscc" />
  </g>
</svg>
