<?xml version="1.0" encoding="UTF-8" standalone="no"?>
<!-- Created with Inkscape (http://www.inkscape.org/) -->

<svg
   xmlns:dc="http://purl.org/dc/elements/1.1/"
   xmlns:cc="http://creativecommons.org/ns#"
   xmlns:rdf="http://www.w3.org/1999/02/22-rdf-syntax-ns#"
   xmlns:svg="http://www.w3.org/2000/svg"
   xmlns="http://www.w3.org/2000/svg"
   xmlns:sodipodi="http://sodipodi.sourceforge.net/DTD/sodipodi-0.dtd"
   xmlns:inkscape="http://www.inkscape.org/namespaces/inkscape"
   width="196.91345mm"
   height="24.940905mm"
   viewBox="0 0 196.91345 24.940905"
   version="1.1"
   id="svg4274"
   inkscape:version="0.92.3 (2405546, 2018-03-11)"
   sodipodi:docname="tear effect.svg">
  <defs
     id="defs4268" />
  <sodipodi:namedview
     id="base"
     pagecolor="#ffffff"
     bordercolor="#666666"
     borderopacity="1.0"
     inkscape:pageopacity="0.0"
     inkscape:pageshadow="2"
     inkscape:zoom="0.35"
     inkscape:cx="373.54847"
     inkscape:cy="-435.27831"
     inkscape:document-units="mm"
     inkscape:current-layer="layer1"
     showgrid="false"
     inkscape:window-width="1920"
     inkscape:window-height="1017"
     inkscape:window-x="-8"
     inkscape:window-y="-8"
     inkscape:window-maximized="1" />
  <metadata
     id="metadata4271">
    <rdf:RDF>
      <cc:Work
         rdf:about="">
        <dc:format>image/svg+xml</dc:format>
        <dc:type
           rdf:resource="http://purl.org/dc/dcmitype/StillImage" />
        <dc:title />
      </cc:Work>
    </rdf:RDF>
  </metadata>
  <g
     inkscape:label="Layer 1"
     inkscape:groupmode="layer"
     id="layer1"
     transform="translate(-6.9986338,-8.7250435)">
    <g
       transform="matrix(0.62307087,0,0,-0.62307087,49.657804,29.486388)"
       id="g104">
      <path
         inkscape:connector-curvature="0"
         id="path106"
         style="fill:#dedfdf;fill-opacity:1;fill-rule:nonzero;stroke:none"
         d="M 0,0 18.891,-1.413 0,-2.826 -18.888,-1.413 Z m 113.072,-5.295 18.89,-1.413 18.891,1.413 -18.891,1.413 z m 92.841,13.801 18.103,1.354 -22.322,1.669 34.156,2.553 -30.419,2.275 42.14,3.15 -71.757,5.367 19.281,1.441 -35.203,2.633 -31.278,-2.339 -14.067,1.831 34.513,2.579 -27.659,2.069 L 102.126,31.647 79.747,33.321 58.83,31.756 80.082,30.165 56.666,28.414 33.253,30.165 46.824,31.18 30.61,32.393 -21.229,28.518 -2.86,27.144 -61.111,22.79 l 34.305,-2.565 -18.103,-1.353 22.321,-1.67 -34.155,-2.552 30.417,-2.276 -42.14,-3.15 57.912,-4.331 -26.516,-1.984 27.992,-2.092 7.239,0.541 21.052,-1.575 31.278,2.34 14.052,-1.83 -36.449,-2.726 50.036,-3.74 10.941,0.818 -19.696,1.473 28.126,2.104 19.713,-1.474 12.905,0.964 18.376,-1.373 51.84,3.875 -18.368,1.373 58.25,4.354 z" />
    </g>
  </g>
</svg>
