<?xml version="1.0" encoding="UTF-8" standalone="no"?>
<!-- Created with Inkscape (http://www.inkscape.org/) -->

<svg
   xmlns:dc="http://purl.org/dc/elements/1.1/"
   xmlns:cc="http://creativecommons.org/ns#"
   xmlns:rdf="http://www.w3.org/1999/02/22-rdf-syntax-ns#"
   xmlns:svg="http://www.w3.org/2000/svg"
   xmlns="http://www.w3.org/2000/svg"
   xmlns:sodipodi="http://sodipodi.sourceforge.net/DTD/sodipodi-0.dtd"
   xmlns:inkscape="http://www.inkscape.org/namespaces/inkscape"
   width="81.855629mm"
   height="30.375183mm"
   viewBox="0 0 81.855629 30.375183"
   version="1.1"
   id="svg4769"
   inkscape:version="0.92.3 (2405546, 2018-03-11)"
   sodipodi:docname="top-banner-dragon.svg">
  <defs
     id="defs4763">
    <clipPath
       id="clipPath1708"
       clipPathUnits="userSpaceOnUse">
      <path
         inkscape:connector-curvature="0"
         id="path1706"
         d="m 111.56,748.005 h 144 v 15.484 h -144 z" />
    </clipPath>
    <clipPath
       id="clipPath166"
       clipPathUnits="userSpaceOnUse">
      <path
         inkscape:connector-curvature="0"
         id="path164"
         d="M 0,0 H 612 V 792 H 0 Z" />
    </clipPath>
  </defs>
  <sodipodi:namedview
     id="base"
     pagecolor="#ffffff"
     bordercolor="#666666"
     borderopacity="1.0"
     inkscape:pageopacity="0.0"
     inkscape:pageshadow="2"
     inkscape:zoom="1.979899"
     inkscape:cx="307.87073"
     inkscape:cy="-61.460322"
     inkscape:document-units="mm"
     inkscape:current-layer="layer1"
     showgrid="false"
     inkscape:window-width="1920"
     inkscape:window-height="1017"
     inkscape:window-x="-8"
     inkscape:window-y="-8"
     inkscape:window-maximized="1" />
  <metadata
     id="metadata4766">
    <rdf:RDF>
      <cc:Work
         rdf:about="">
        <dc:format>image/svg+xml</dc:format>
        <dc:type
           rdf:resource="http://purl.org/dc/dcmitype/StillImage" />
        <dc:title />
      </cc:Work>
    </rdf:RDF>
  </metadata>
  <g
     inkscape:label="Layer 1"
     inkscape:groupmode="layer"
     id="layer1"
     transform="translate(-2.2362134,-1.4292204)">
    <g
       transform="matrix(0.35277777,0,0,-0.35277777,22.464631,3.1825965)"
       id="g120">
      <path
         inkscape:connector-curvature="0"
         id="path122"
         style="fill:#000000;fill-opacity:1;fill-rule:nonzero;stroke:none"
         d="m 0,0 c -0.431,-2.8 0.22,-6.34 0.22,-6.34 0,0 -2.05,1.5 -4.29,2.77 -1.33,0.75 -2.46,2.42 -3.161,3.65 -0.479,0.85 -0.759,1.48 -0.759,1.48 -3.111,-3.34 -1.101,-7.27 -1.101,-7.27 -4.849,1.06 -7.88,-0.19 -7.88,-0.19 9.181,-6.01 4.301,-6.5 -1,-9.01 -5.29,-2.51 -5.679,-5.63 -5.679,-5.63 6.33,2.08 8.849,-0.58 8.849,-0.58 -3.409,-3.26 -0.369,-8.35 -0.369,-8.35 3.31,-6.34 11.51,-9.04 18.85,-10.15 7.269,-1.11 13.7,-0.67 13.7,-0.67 l -16.721,-5.2 -15.019,-3.79 c 0,0 -14.911,1.6 -20.39,14.22 -5.471,12.63 4.09,22.57 3.13,23.22 -0.91,0.62 -2.07,-0.76 -2.191,-0.91 4.161,11.91 16.691,11.78 17.191,13.04 0.51,1.27 -2.471,1.35 -2.471,1.35 C -6.42,5.81 0,0 0,0" />
    </g>
    <g
       transform="matrix(0.35277777,0,0,-0.35277777,61.467775,26.110682)"
       id="g136">
      <path
         inkscape:connector-curvature="0"
         id="path138"
         style="fill:#ffffff;fill-opacity:1;fill-rule:nonzero;stroke:none"
         d="m 0,0 c -0.004,-0.014 -0.015,-0.023 -0.019,-0.036 -0.088,-0.307 -0.036,-0.636 0.143,-0.901 0.218,-0.324 5.426,-7.942 12.223,-7.942 1.513,0 2.994,0.383 4.469,1.177 0.591,0.375 1.159,0.755 1.649,1.098 3.578,2.192 7.058,5.399 8.319,6.604 z" />
    </g>
    <g
       transform="matrix(0.35277777,0,0,-0.35277777,2.4787481,17.561853)"
       id="g140">
      <path
         inkscape:connector-curvature="0"
         id="path142"
         style="fill:#ffffff;fill-opacity:1;fill-rule:nonzero;stroke:none"
         d="m 0,0 v -37.5 l 35.5,4.639 V 4.64 Z" />
    </g>
    <g
       transform="matrix(0.35277777,0,0,-0.35277777,2.4787481,17.561853)"
       id="g144">
      <path
         inkscape:connector-curvature="0"
         id="path146"
         style="fill:none;stroke:#000000;stroke-width:1.375;stroke-linecap:butt;stroke-linejoin:miter;stroke-miterlimit:10;stroke-dasharray:none;stroke-opacity:1"
         d="m 0,0 v -37.5 l 35.5,4.639 v 37.5 z" />
    </g>
    <g
       transform="matrix(0.35277777,0,0,-0.35277777,2.7526091,29.808817)"
       id="g148">
      <path
         inkscape:connector-curvature="0"
         id="path150"
         style="fill:none;stroke:#000000;stroke-width:0.75;stroke-linecap:butt;stroke-linejoin:miter;stroke-miterlimit:10;stroke-dasharray:none;stroke-opacity:1"
         d="M 0,0 34.724,4.925 M 0,32.207 34.724,36.625" />
    </g>
    <g
       transform="matrix(0.35277777,0,0,-0.35277777,15.002359,15.925423)"
       id="g152">
      <path
         inkscape:connector-curvature="0"
         id="path154"
         style="fill:#c3c4c6;fill-opacity:1;fill-rule:nonzero;stroke:none"
         d="m 0,0 -24.219,3.583 v -37.5 L 0,-37.5 Z" />
    </g>
    <g
       transform="matrix(0.35277777,0,0,-0.35277777,15.002359,15.925423)"
       id="g156">
      <path
         inkscape:connector-curvature="0"
         id="path158"
         style="fill:none;stroke:#000000;stroke-width:1.375;stroke-linecap:butt;stroke-linejoin:miter;stroke-miterlimit:10;stroke-dasharray:none;stroke-opacity:1"
         d="m 0,0 -24.219,3.583 v -37.5 L 0,-37.5 Z" />
    </g>
    <g
       transform="matrix(0.35277777,0,0,-0.35277777,-8.2483419,275.24119)"
       id="g160">
      <g
         clip-path="url(#clipPath166)"
         id="g162">
        <g
           transform="translate(260.7278,701.1514)"
           id="g168">
          <path
             inkscape:connector-curvature="0"
             id="path170"
             style="fill:#ffffff;fill-opacity:1;fill-rule:nonzero;stroke:none"
             d="M 0,0 C -61.753,-11.25 -157.286,11.25 -219.039,0 V 37.5 C -157.286,48.75 -61.753,26.25 0,37.5 Z" />
        </g>
        <g
           transform="translate(260.7278,701.1514)"
           id="g172">
          <path
             inkscape:connector-curvature="0"
             id="path174"
             style="fill:none;stroke:#000000;stroke-width:1.375;stroke-linecap:butt;stroke-linejoin:miter;stroke-miterlimit:10;stroke-dasharray:none;stroke-opacity:1"
             d="M 0,0 C -61.753,-11.25 -157.286,11.25 -219.039,0 V 37.5 C -157.286,48.75 -61.753,26.25 0,37.5 Z" />
        </g>
        <g
           transform="translate(261.6057,704.7744)"
           id="g176">
          <path
             inkscape:connector-curvature="0"
             id="path178"
             style="fill:none;stroke:#000000;stroke-width:0.75;stroke-linecap:butt;stroke-linejoin:miter;stroke-miterlimit:10;stroke-dasharray:none;stroke-opacity:1"
             d="m 0,0 c 0,0 -20.5,-8.666 -114.666,-0.333 -66.51,5.886 -99.718,0.727 -104.856,-0.173 M -0.878,30.955 c 0,0 -19.872,-8.038 -114.038,0.295 -66.51,5.886 -99.718,0.726 -104.856,-0.173" />
        </g>
      </g>
    </g>
    <g
       transform="matrix(0.35277777,0,0,-0.35277777,26.930446,8.7741594)"
       id="g220">
      <path
         inkscape:connector-curvature="0"
         id="path222"
         style="fill:#ffffff;fill-opacity:1;fill-rule:nonzero;stroke:none"
         d="M 0,0 C 3.391,-1.37 4.29,-4.66 4.29,-4.66 1.441,-4.58 0.601,-2.38 0,0" />
    </g>
    <g
       transform="matrix(0.35277777,0,0,-0.35277777,82.071802,29.665519)"
       id="g224">
      <path
         inkscape:connector-curvature="0"
         id="path226"
         style="fill:#000000;fill-opacity:1;fill-rule:nonzero;stroke:none"
         d="m 0,0 c -0.64,3.468 -3.087,9.124 -7.827,12.106 -3.917,2.459 -7.339,1.927 -7.355,3.149 -0.029,1.554 4.362,1.073 4.362,1.073 -4.735,2.712 -11.527,-0.607 -12.498,0.946 -0.573,0.931 3.161,2.238 3.161,2.238 -5.776,0.212 -12.592,-2.765 -15.326,-5.466 6.89,2.313 16.593,0.983 21.05,-2.825 -1.887,1.06 -3.933,1.768 -6.033,2.188 -7.819,1.572 -16.523,-0.755 -21.763,-2.935 C -48.143,8.471 -52.654,5.513 -52.654,5.513 -56.558,3.244 -63.768,1.129 -68.657,3.198 l -0.001,-0.01 c 0,0 7.654,-12.749 17.059,-8.314 0.691,0.384 1.352,0.78 1.973,1.168 5.134,2.785 10.304,7.431 10.304,7.431 1.798,1.257 7.334,4.862 13.999,6.876 1.485,0.443 2.992,0.535 4.424,0.329 3.717,-0.505 6.957,-2.888 8.02,-5.737 C -10.009,5.441 -2.734,3.037 0,0" />
    </g>
    <g
       transform="matrix(0.35277777,0,0,-0.35277777,28.443897,10.417998)"
       id="g228">
      <path
         inkscape:connector-curvature="0"
         id="path230"
         style="fill:#000000;fill-opacity:1;fill-rule:nonzero;stroke:none"
         d="M 0,0 C 0,0 -0.899,3.29 -4.29,4.66 -3.689,2.28 -2.85,0.08 0,0 m -10.92,-8.8 c -0.79,4.26 -6.67,4.99 -9.699,3.03 1.05,2.82 4,5.38 6.279,6.19 -1.3,0.5 -2.83,0.93 -4.479,1.29 1.939,1.48 6.71,2.6 9.13,2.39 -0.441,0.13 -0.92,0.23 -1.441,0.3 l 0.46,2.77 c -0.269,2.32 -2.37,4.98 -4.87,6.58 -1.239,3.55 -0.029,10.01 1.681,11.73 C -14.72,16.19 -1.6,10.45 0.95,3.6 -0.489,9.45 -6.56,13.31 -9.399,16.87 -10.3,19.21 -9.43,23.08 -8.34,24.39 -8.84,18.16 -2.26,13.08 1.23,9.48 5.351,5.25 6.44,1.58 5.771,-1.37 6.69,-1.65 7.94,-2.59 7.681,-4.11 c 1.359,0.27 2.79,1.78 3.149,2.73 0.53,-4.66 -2.35,-9.47 -5.439,-10.84 0,0 0.889,2.18 -0.46,3.92 -1.321,1.71 -5.21,1.85 -6.531,1.8 0,0 1.691,2.34 1.08,3.57 -0.74,1.53 -8.379,1.1 -11.83,-0.03 1.17,0.09 3.911,-0.3 4.85,-0.73 -0.56,-0.78 -2.06,-4.09 -1.079,-5.13 0.829,-0.89 2,0.43 2.149,0.6 -0.11,-0.32 -1.259,-3.66 -0.469,-4.5 0.82,-0.88 2.67,-0.33 2.67,-0.33 -1.231,-2.84 -5.72,-4.69 -8.821,-4.59 1.12,0.31 3.01,2.22 3.321,3.4 -0.831,-0.38 -2.951,-0.55 -3.76,-0.37 1.01,0.38 3.099,2.89 2.569,5.81" />
    </g>
    <g
       transform="matrix(0.35277777,0,0,-0.35277777,18.820366,7.3630484)"
       id="g232">
      <path
         inkscape:connector-curvature="0"
         id="path234"
         style="fill:#000000;fill-opacity:1;fill-rule:nonzero;stroke:none"
         d="M 0,0 C 0.51,1.8 -2.99,5.01 -4.311,5.63 0.63,5.68 3.06,4.68 3.06,4.68 1.83,6.61 1.5,9.53 2.31,11.81 4.8,5.28 14.39,3.94 16.609,-1.49 l -0.46,-2.77 C 12.359,-3.77 6.77,-4.9 3.95,-8.03 4.93,-8.06 7.46,-8.61 8.439,-8.96 4.17,-9.6 -1.71,-13.36 -3.471,-15.17 c 0.521,2.44 1.271,4.49 0.741,5.98 -0.75,2.1 -3.25,3.06 -8.3,2.17 C -7.54,-3.73 -0.53,-1.84 0,0" />
    </g>
    <g
       transform="matrix(0.35277777,0,0,-0.35277777,8.9319351,13.189525)"
       id="g236">
      <path
         inkscape:connector-curvature="0"
         id="path238"
         style="fill:#000000;fill-opacity:1;fill-rule:nonzero;stroke:none"
         d="M 0,0 1.019,-2.22 C -0.35,-2.45 -1.89,-7.86 -1.89,-7.86 -5.38,-5.84 -2.44,0.62 -2.44,0.62 Z" />
    </g>
    <g
       transform="matrix(0.35277777,0,0,-0.35277777,6.2436981,12.86497)"
       id="g240">
      <path
         inkscape:connector-curvature="0"
         id="path242"
         style="fill:#000000;fill-opacity:1;fill-rule:nonzero;stroke:none"
         d="M 0,0 C 0,0 1.82,1.31 2.78,1.55 L 4.37,0.14 3.55,-0.11 c 0,0 -1.529,-5 -0.91,-7.07 l 1,-2.9 c 0,0 -3.26,0.65 -3.76,1.9 0,0 -1.05,5.63 0.12,8.18" />
    </g>
    <g
       transform="matrix(0.35277777,0,0,-0.35277777,5.5946221,13.612718)"
       id="g244">
      <path
         inkscape:connector-curvature="0"
         id="path246"
         style="fill:#000000;fill-opacity:1;fill-rule:nonzero;stroke:none"
         d="m 0,0 c 0,0 0.21,-6.42 0.87,-6.99 l 2.42,-1.03 0.07,-2.19 c 0,0 -4.32,1.37 -4.68,3.02 -0.36,1.65 -0.64,5.75 -0.64,5.75 0,0 0.72,1.07 1.96,1.44" />
    </g>
  </g>
</svg>
