<?xml version="1.0" encoding="UTF-8" standalone="no"?>
<!-- Created with Inkscape (http://www.inkscape.org/) -->

<svg
   xmlns:dc="http://purl.org/dc/elements/1.1/"
   xmlns:cc="http://creativecommons.org/ns#"
   xmlns:rdf="http://www.w3.org/1999/02/22-rdf-syntax-ns#"
   xmlns:svg="http://www.w3.org/2000/svg"
   xmlns="http://www.w3.org/2000/svg"
   xmlns:sodipodi="http://sodipodi.sourceforge.net/DTD/sodipodi-0.dtd"
   xmlns:inkscape="http://www.inkscape.org/namespaces/inkscape"
   width="193.03369mm"
   height="200.66302mm"
   viewBox="0 0 193.03369 200.66302"
   version="1.1"
   id="svg8251"
   inkscape:version="0.92.3 (2405546, 2018-03-11)"
   sodipodi:docname="background-3.svg">
  <defs
     id="defs8245">
    <clipPath
       id="clipPath7638"
       clipPathUnits="userSpaceOnUse">
      <path
         inkscape:connector-curvature="0"
         id="path7636"
         d="M 0,0 H 612 V 792 H 0 Z" />
    </clipPath>
  </defs>
  <sodipodi:namedview
     id="base"
     pagecolor="#ffffff"
     bordercolor="#666666"
     borderopacity="1.0"
     inkscape:pageopacity="0.0"
     inkscape:pageshadow="2"
     inkscape:zoom="0.35"
     inkscape:cx="373.40781"
     inkscape:cy="214.91996"
     inkscape:document-units="mm"
     inkscape:current-layer="layer1"
     showgrid="false"
     inkscape:window-width="1920"
     inkscape:window-height="1017"
     inkscape:window-x="-8"
     inkscape:window-y="-8"
     inkscape:window-maximized="1" />
  <metadata
     id="metadata8248">
    <rdf:RDF>
      <cc:Work
         rdf:about="">
        <dc:format>image/svg+xml</dc:format>
        <dc:type
           rdf:resource="http://purl.org/dc/dcmitype/StillImage" />
        <dc:title />
      </cc:Work>
    </rdf:RDF>
  </metadata>
  <g
     inkscape:label="Layer 1"
     inkscape:groupmode="layer"
     id="layer1"
     transform="translate(-7.0358498,-5.0345496)">
    <g
       id="g7632"
       transform="matrix(1.1640737,0,0,-1.1640737,-469.32476,772.43803)">
      <g
         id="g7634"
         clip-path="url(#clipPath7638)">
        <g
           id="g7640"
           transform="translate(418.4106,487.8936)">
          <path
             d="m 0,0 c 1.405,-0.25 3.713,-0.438 6.146,0.306 l 4.978,-1.34 H 1.503 C 1.057,-0.755 0.547,-0.415 0,0 m 136.318,-1.034 h 9.62 c 0.445,0.278 0.953,0.619 1.499,1.033 -1.406,-0.25 -3.711,-0.436 -6.14,0.307 z m 9.62,172.38 h -9.62 l 4.979,-1.34 c 2.429,0.742 4.734,0.556 6.14,0.306 -0.546,0.415 -1.054,0.755 -1.499,1.034 M -6.551,10.403 v 64.241 c -0.241,0.134 -0.412,0.383 -0.412,0.68 0,0.434 0.354,0.787 0.787,0.787 0.436,0 0.789,-0.353 0.789,-0.787 0,-0.297 -0.171,-0.547 -0.414,-0.681 v -64.24 c 0,-4.464 2.565,-7.675 4.932,-9.7 0.988,-0.255 3.906,-0.847 6.935,0.101 l 0.07,0.022 0.07,-0.019 6.841,-1.841 h 121.347 l 6.913,1.86 0.069,-0.022 c 3.021,-0.945 5.934,-0.36 6.929,-0.103 2.368,2.026 4.937,5.24 4.937,9.702 v 64.241 c -0.242,0.134 -0.412,0.383 -0.412,0.68 0,0.434 0.353,0.787 0.787,0.787 0.435,0 0.789,-0.353 0.789,-0.787 0,-0.297 -0.171,-0.547 -0.414,-0.681 v -64.24 c 0,-5.729 -3.955,-9.502 -6.703,-11.437 h 1.889 c 1.985,1.828 5.946,6.122 7.456,12.25 l -0.002,147.888 c -1.511,6.126 -5.468,10.416 -7.453,12.242 h -1.89 c 2.748,-1.936 6.703,-5.708 6.703,-11.438 V 96.669 c 0.243,-0.135 0.414,-0.385 0.414,-0.682 0,-0.433 -0.354,-0.787 -0.789,-0.787 -0.434,0 -0.787,0.354 -0.787,0.787 0,0.297 0.17,0.545 0.412,0.68 v 63.241 c 0,4.462 -2.569,7.677 -4.937,9.702 -0.995,0.257 -3.908,0.842 -6.929,-0.102 l -0.069,-0.023 -0.07,0.02 -6.843,1.841 H 13.048 l -6.912,-1.861 -0.07,0.023 c -3.022,0.945 -5.936,0.357 -6.93,0.102 -2.368,-2.025 -4.937,-5.24 -4.937,-9.702 V 96.669 c 0.243,-0.135 0.414,-0.385 0.414,-0.682 0,-0.433 -0.353,-0.787 -0.789,-0.787 -0.433,0 -0.787,0.354 -0.787,0.787 0,0.297 0.171,0.545 0.412,0.68 v 63.241 c 0,5.73 3.956,9.502 6.704,11.438 h -1.89 c -1.985,-1.828 -5.946,-6.123 -7.455,-12.254 L -9.19,11.211 C -7.68,5.083 -3.723,0.792 -1.738,-1.034 h 1.891 c -2.748,1.935 -6.704,5.708 -6.704,11.437 m 17.675,160.943 h -9.62 c -0.445,-0.279 -0.954,-0.619 -1.5,-1.034 1.406,0.25 3.712,0.436 6.142,-0.306 z m -13.59,0 h -2.58 c 0,0 -2.168,-3.647 -4.146,-4.576 v -5.874 c 1.664,4.987 4.809,8.604 6.726,10.45 M 149.908,-1.034 h 2.58 c 0,0 2.168,3.646 4.146,4.576 V 9.413 C 154.97,4.428 151.824,0.812 149.908,-1.034 M -9.19,9.411 V 3.542 c 1.976,-0.93 4.146,-4.576 4.146,-4.576 h 2.578 C -4.383,0.812 -7.526,4.427 -9.19,9.411 m 165.822,151.491 v 5.868 c -1.976,0.929 -4.146,4.576 -4.146,4.576 h -2.578 c 1.916,-1.846 5.06,-5.46 6.724,-10.444"
             style="fill:#dedfdf;fill-opacity:1;fill-rule:nonzero;stroke:none"
             id="path7642"
             inkscape:connector-curvature="0" />
        </g>
      </g>
    </g>
  </g>
</svg>
