<?xml version="1.0" encoding="UTF-8" standalone="no"?>
<!-- Created with Inkscape (http://www.inkscape.org/) -->

<svg
   xmlns:dc="http://purl.org/dc/elements/1.1/"
   xmlns:cc="http://creativecommons.org/ns#"
   xmlns:rdf="http://www.w3.org/1999/02/22-rdf-syntax-ns#"
   xmlns:svg="http://www.w3.org/2000/svg"
   xmlns="http://www.w3.org/2000/svg"
   xmlns:sodipodi="http://sodipodi.sourceforge.net/DTD/sodipodi-0.dtd"
   xmlns:inkscape="http://www.inkscape.org/namespaces/inkscape"
   width="197.21924mm"
   height="283.19366mm"
   viewBox="0 0 197.21924 283.19366"
   version="1.1"
   id="svg8392"
   inkscape:version="0.92.3 (2405546, 2018-03-11)"
   sodipodi:docname="box-9.svg">
  <defs
     id="defs8386" />
  <sodipodi:namedview
     id="base"
     pagecolor="#ffffff"
     bordercolor="#666666"
     borderopacity="1.0"
     inkscape:pageopacity="0.0"
     inkscape:pageshadow="2"
     inkscape:zoom="0.35"
     inkscape:cx="377.14284"
     inkscape:cy="640.88342"
     inkscape:document-units="mm"
     inkscape:current-layer="layer1"
     showgrid="false"
     inkscape:window-width="1920"
     inkscape:window-height="1017"
     inkscape:window-x="-8"
     inkscape:window-y="-8"
     inkscape:window-maximized="1" />
  <metadata
     id="metadata8389">
    <rdf:RDF>
      <cc:Work
         rdf:about="">
        <dc:format>image/svg+xml</dc:format>
        <dc:type
           rdf:resource="http://purl.org/dc/dcmitype/StillImage" />
        <dc:title />
      </cc:Work>
    </rdf:RDF>
  </metadata>
  <g
     inkscape:label="Layer 1"
     inkscape:groupmode="layer"
     id="layer1"
     transform="translate(-6.0476236,-4.9686416)">
    <g
       id="g7844"
       transform="matrix(1.0956624,0,0,-1.0956624,197.7743,15.479331)">
      <path
         d="m 0,0 h -9.641 c -1.071,1.928 -1.841,4.102 -1.841,6.399 v 0.688 h -55.311 c -5.788,1.653 -11.904,2.506 -18.195,2.506 -6.291,0 -12.407,-0.853 -18.196,-2.506 h -55.309 V 6.399 c 0,-2.297 -0.771,-4.471 -1.842,-6.399 h -9.64 l -5.012,-5.014 V -234.36 l 5.012,-5.012 h 9.688 c 1.045,-1.905 1.794,-4.047 1.794,-6.31 v -0.687 h 55.311 c 5.787,-1.653 11.903,-2.506 18.194,-2.506 6.291,0 12.407,0.853 18.196,2.506 h 55.31 v 0.687 c 0,2.263 0.749,4.405 1.794,6.31 H 0 l 5.013,5.012 V -5.014 Z m -110.956,2.887 c 0.588,0 1.064,0.476 1.064,1.063 0,0.048 -0.021,0.089 -0.027,0.135 1.415,0.595 2.856,1.138 4.321,1.627 h 41.223 c 1.462,-0.487 2.901,-1.03 4.314,-1.624 -0.007,-0.047 -0.028,-0.089 -0.028,-0.138 0,-0.587 0.475,-1.063 1.063,-1.063 0.33,0 0.612,0.158 0.808,0.393 1.091,-0.502 2.16,-1.043 3.216,-1.609 h -59.971 c 1.055,0.565 2.123,1.104 3.212,1.606 0.195,-0.233 0.477,-0.39 0.805,-0.39 M -119.016,0 h -38.208 c 0.852,1.304 3.119,3.65 8.419,3.65 h 36.433 c -2.295,-1.075 -4.512,-2.295 -6.644,-3.65 m 2.949,1.071 h 62.159 C -53.293,0.725 -52.685,0.368 -52.084,0 h -65.806 c 0.6,0.368 1.209,0.725 1.823,1.071 M -50.959,0 c -2.132,1.355 -4.35,2.575 -6.645,3.65 h 36.531 c 5.301,0 7.567,-2.346 8.419,-3.65 z m 39.739,0 h -0.73 c -0.544,0.955 -1.905,2.725 -4.851,3.65 h 4.272 C -12.244,2.367 -11.792,1.142 -11.22,0 m -1.618,5.712 c 0.028,-0.495 0.087,-0.983 0.171,-1.462 h -45.356 c -0.132,0.437 -0.521,0.764 -1.003,0.764 -0.322,0 -0.6,-0.151 -0.796,-0.376 -0.902,0.38 -1.815,0.737 -2.739,1.074 z m -72.15,3.281 c 5.456,0 10.78,-0.647 15.867,-1.906 h -31.734 c 5.088,1.259 10.411,1.906 15.867,1.906 m -22.428,-3.281 c -0.924,-0.337 -1.838,-0.696 -2.743,-1.077 -0.194,0.227 -0.473,0.379 -0.797,0.379 -0.481,0 -0.871,-0.327 -1.002,-0.764 h -45.351 c 0.084,0.479 0.143,0.967 0.171,1.462 z m -50.03,-2.062 h 4.369 c -2.945,-0.925 -4.307,-2.695 -4.851,-3.65 h -0.828 c 0.572,1.142 1.025,2.367 1.31,3.65 m -16.166,-9.233 4.209,4.208 h 2.707 c -2.289,-0.962 -3.916,-2.529 -5.072,-4.257 h -0.045 v -0.07 c -0.813,-1.232 -1.391,-2.534 -1.799,-3.756 z m 0,-6.146 c 0.302,1.416 0.841,3.18 1.799,4.873 v -225.675 c -0.168,0.297 -0.344,0.579 -0.496,0.898 -0.657,1.385 -1.057,2.776 -1.303,3.94 z m 4.209,-226.268 -4.209,4.207 v 3.876 c 0.408,-1.222 0.986,-2.525 1.799,-3.756 v -0.071 h 0.045 c 1.156,-1.727 2.783,-3.294 5.072,-4.256 z m 110.383,-4.172 c -0.588,0 -1.063,-0.477 -1.063,-1.063 0,-0.048 0.02,-0.089 0.027,-0.135 -1.415,-0.595 -2.857,-1.138 -4.321,-1.627 H -105.6 c -1.463,0.487 -2.901,1.03 -4.315,1.624 0.007,0.047 0.029,0.089 0.029,0.138 0,0.586 -0.476,1.063 -1.064,1.063 -0.33,0 -0.612,-0.158 -0.807,-0.393 -1.091,0.501 -2.16,1.042 -3.216,1.609 h 59.971 c -1.055,-0.566 -2.123,-1.105 -3.212,-1.607 -0.196,0.234 -0.478,0.391 -0.806,0.391 m 7.918,2.797 h 38.289 c -0.896,-1.318 -3.174,-3.561 -8.358,-3.561 h -36.433 c 2.244,1.052 4.414,2.242 6.502,3.561 m -2.807,-0.982 h -62.159 c -0.565,0.32 -1.127,0.644 -1.681,0.982 h 65.521 c -0.554,-0.338 -1.115,-0.662 -1.681,-0.982 m -64.965,0.982 c 2.088,-1.319 4.258,-2.509 6.502,-3.561 h -36.53 c -5.184,0 -7.462,2.243 -8.358,3.561 z m -39.834,0 h 0.736 c 0.576,-0.973 1.942,-2.662 4.797,-3.561 h -4.271 c -0.279,1.249 -0.709,2.446 -1.262,3.561 m 1.57,-5.622 c -0.028,0.495 -0.087,0.982 -0.171,1.462 h 45.356 c 0.132,-0.438 0.522,-0.764 1.003,-0.764 0.323,0 0.601,0.15 0.796,0.376 0.903,-0.38 1.816,-0.737 2.739,-1.074 z m 72.15,-3.281 c -5.456,0 -10.779,0.647 -15.867,1.906 h 31.734 c -5.087,-1.259 -10.411,-1.906 -15.867,-1.906 m 22.428,3.281 c 0.925,0.337 1.839,0.696 2.743,1.077 0.194,-0.228 0.474,-0.379 0.797,-0.379 0.481,0 0.871,0.326 1.003,0.764 h 45.35 c -0.084,-0.48 -0.143,-0.967 -0.171,-1.462 z m 50.031,2.061 h -4.369 c 2.856,0.899 4.22,2.588 4.796,3.561 h 0.834 c -0.552,-1.115 -0.983,-2.312 -1.261,-3.561 m -152.257,4.936 c -2.613,0.632 -4.705,2.071 -6.277,4.278 V -5.678 c 1.367,1.915 3.369,3.579 6.302,4.303 H -5.189 c 2.614,-0.633 4.706,-2.071 6.278,-4.278 v -228.042 c -1.366,-1.915 -3.37,-3.579 -6.304,-4.302 z m 168.424,4.207 -4.208,-4.207 h -2.707 c 2.288,0.962 3.915,2.529 5.07,4.256 h 0.046 v 0.071 c 0.811,1.231 1.391,2.534 1.799,3.756 z m 0,6.146 c -0.303,-1.417 -0.843,-3.18 -1.799,-4.872 V -6.842 C 2.006,-7.139 2.183,-7.42 2.334,-7.739 2.99,-9.124 3.392,-10.516 3.638,-11.68 Z m 0,218.186 C 3.23,-8.236 2.65,-6.934 1.839,-5.702 v 0.07 H 1.793 c -1.155,1.728 -2.782,3.295 -5.07,4.257 h 2.707 l 4.208,-4.208 z"
         style="fill:#000000;fill-opacity:1;fill-rule:nonzero;stroke:none"
         id="path7846"
         inkscape:connector-curvature="0" />
    </g>
  </g>
</svg>
