<?xml version="1.0" encoding="UTF-8" standalone="no"?>
<!-- Created with Inkscape (http://www.inkscape.org/) -->

<svg
   xmlns:dc="http://purl.org/dc/elements/1.1/"
   xmlns:cc="http://creativecommons.org/ns#"
   xmlns:rdf="http://www.w3.org/1999/02/22-rdf-syntax-ns#"
   xmlns:svg="http://www.w3.org/2000/svg"
   xmlns="http://www.w3.org/2000/svg"
   xmlns:sodipodi="http://sodipodi.sourceforge.net/DTD/sodipodi-0.dtd"
   xmlns:inkscape="http://www.inkscape.org/namespaces/inkscape"
   width="203.63638mm"
   height="202.70793mm"
   viewBox="0 0 203.63638 202.70793"
   version="1.1"
   id="svg4222"
   inkscape:version="0.92.3 (2405546, 2018-03-11)"
   sodipodi:docname="box-7.svg">
  <defs
     id="defs4216" />
  <sodipodi:namedview
     id="base"
     pagecolor="#ffffff"
     bordercolor="#666666"
     borderopacity="1.0"
     inkscape:pageopacity="0.0"
     inkscape:pageshadow="2"
     inkscape:zoom="1.4"
     inkscape:cx="446.16854"
     inkscape:cy="568.34862"
     inkscape:document-units="mm"
     inkscape:current-layer="layer1"
     showgrid="false"
     inkscape:window-width="1920"
     inkscape:window-height="1017"
     inkscape:window-x="-8"
     inkscape:window-y="-8"
     inkscape:window-maximized="1" />
  <metadata
     id="metadata4219">
    <rdf:RDF>
      <cc:Work
         rdf:about="">
        <dc:format>image/svg+xml</dc:format>
        <dc:type
           rdf:resource="http://purl.org/dc/dcmitype/StillImage" />
        <dc:title />
      </cc:Work>
    </rdf:RDF>
  </metadata>
  <g
     inkscape:label="Layer 1"
     inkscape:groupmode="layer"
     id="layer1"
     transform="translate(-3.2006232,-2.8781808)">
    <g
       transform="matrix(1.1308797,0,0,-1.1308797,201.1679,2.8781808)"
       id="g472">
      <path
         inkscape:connector-curvature="0"
         id="path474"
         style="fill:#000000;fill-opacity:1;fill-rule:nonzero;stroke:none"
         d="m 0,0 h -170.043 l -5.013,-5.013 v -169.223 l 5.013,-5.012 H 0 l 5.013,5.012 V -5.013 Z M 3.638,-5.583 V -9.458 C 3.23,-8.236 2.651,-6.933 1.839,-5.702 v 0.071 H 1.793 c -1.155,1.727 -2.782,3.294 -5.07,4.256 h 2.707 z m -8.852,-172.29 h -159.64 c -2.614,0.632 -4.706,2.071 -6.278,4.279 V -5.677 c 1.366,1.915 3.37,3.579 6.303,4.302 H -5.188 c 2.613,-0.632 4.705,-2.071 6.277,-4.278 v -167.918 c -1.366,-1.915 -3.37,-3.579 -6.303,-4.302 m -168.467,166.144 c 0.303,1.417 0.843,3.181 1.799,4.873 v -165.551 c -0.167,0.297 -0.343,0.579 -0.495,0.898 -0.657,1.385 -1.058,2.776 -1.304,3.94 z m 175.52,4.888 c 0.167,-0.297 0.344,-0.579 0.495,-0.898 0.657,-1.385 1.058,-2.776 1.304,-3.94 v -155.839 c -0.303,-1.418 -0.843,-3.182 -1.799,-4.873 z m -171.312,5.466 h 2.707 c -2.288,-0.962 -3.915,-2.529 -5.07,-4.256 h -0.046 v -0.071 c -0.812,-1.231 -1.391,-2.534 -1.799,-3.756 v 3.875 z m -4.208,-172.291 v 3.876 c 0.408,-1.221 0.987,-2.525 1.799,-3.756 v -0.071 h 0.046 c 1.155,-1.727 2.782,-3.294 5.07,-4.256 h -2.707 z m 173.111,-4.207 h -2.707 c 2.288,0.962 3.915,2.529 5.07,4.256 h 0.046 v 0.071 c 0.812,1.231 1.391,2.535 1.799,3.756 v -3.876 z" />
    </g>
  </g>
</svg>
