<?xml version="1.0" encoding="UTF-8" standalone="no"?>
<!-- Created with Inkscape (http://www.inkscape.org/) -->

<svg
   xmlns:dc="http://purl.org/dc/elements/1.1/"
   xmlns:cc="http://creativecommons.org/ns#"
   xmlns:rdf="http://www.w3.org/1999/02/22-rdf-syntax-ns#"
   xmlns:svg="http://www.w3.org/2000/svg"
   xmlns="http://www.w3.org/2000/svg"
   xmlns:sodipodi="http://sodipodi.sourceforge.net/DTD/sodipodi-0.dtd"
   xmlns:inkscape="http://www.inkscape.org/namespaces/inkscape"
   width="199.57144mm"
   height="161.28587mm"
   viewBox="0 0 199.57144 161.28587"
   version="1.1"
   id="svg4120"
   inkscape:version="0.92.3 (2405546, 2018-03-11)"
   sodipodi:docname="box-4.svg">
  <defs
     id="defs4114" />
  <sodipodi:namedview
     id="base"
     pagecolor="#ffffff"
     bordercolor="#666666"
     borderopacity="1.0"
     inkscape:pageopacity="0.0"
     inkscape:pageshadow="2"
     inkscape:zoom="0.35"
     inkscape:cx="380.00005"
     inkscape:cy="61.176499"
     inkscape:document-units="mm"
     inkscape:current-layer="layer1"
     showgrid="false"
     inkscape:window-width="1920"
     inkscape:window-height="1017"
     inkscape:window-x="-8"
     inkscape:window-y="-8"
     inkscape:window-maximized="1" />
  <metadata
     id="metadata4117">
    <rdf:RDF>
      <cc:Work
         rdf:about="">
        <dc:format>image/svg+xml</dc:format>
        <dc:type
           rdf:resource="http://purl.org/dc/dcmitype/StillImage" />
        <dc:title />
      </cc:Work>
    </rdf:RDF>
  </metadata>
  <g
     inkscape:label="Layer 1"
     inkscape:groupmode="layer"
     id="layer1"
     transform="translate(-5.291654,-3.7337419)">
    <g
       transform="matrix(1.1087302,0,0,-1.1087302,204.86309,7.0566063)"
       id="g484">
      <path
         inkscape:connector-curvature="0"
         id="path486"
         style="fill:#000000;fill-opacity:1;fill-rule:nonzero;stroke:none"
         d="m 0,0 v 0.903 h -2.873 v 2.094 h -1.25 c 0,0 -0.497,-0.72 -1.831,-0.72 h -168.092 c -1.334,0 -1.831,0.72 -1.831,0.72 h -1.25 V 0.903 H -180 V 0 c 1.182,0 1.247,-1.937 1.247,-1.937 v -134.399 c 0,0 -0.065,-1.937 -1.247,-1.937 v -0.903 h 1.247 1.626 v -3.296 h 1.25 V 1.444 H -4.123 v -142.363 h -171.753 v -1.553 c 0,0 0.497,0.72 1.831,0.72 H -5.953 c 1.327,0 1.825,-0.711 1.83,-0.719 v -0.001 h 1.25 v 3.296 H -1.247 0 v 0.903 c -1.182,0 -1.247,1.937 -1.247,1.937 V -1.937 C -1.247,-1.937 -1.182,0 0,0 m -177.127,-136.336 h -0.876 v 133.65 h 0.876 z m 175.13,0 h -0.876 v 133.65 h 0.876 z" />
    </g>
  </g>
</svg>
