<?xml version="1.0" encoding="UTF-8" standalone="no"?>
<!-- Created with Inkscape (http://www.inkscape.org/) -->

<svg
   xmlns:dc="http://purl.org/dc/elements/1.1/"
   xmlns:cc="http://creativecommons.org/ns#"
   xmlns:rdf="http://www.w3.org/1999/02/22-rdf-syntax-ns#"
   xmlns:svg="http://www.w3.org/2000/svg"
   xmlns="http://www.w3.org/2000/svg"
   xmlns:sodipodi="http://sodipodi.sourceforge.net/DTD/sodipodi-0.dtd"
   xmlns:inkscape="http://www.inkscape.org/namespaces/inkscape"
   width="203.67867mm"
   height="83.904869mm"
   viewBox="0 0 203.67867 83.904869"
   version="1.1"
   id="svg3707"
   inkscape:version="0.92.3 (2405546, 2018-03-11)"
   sodipodi:docname="detail-3.svg">
  <defs
     id="defs3701">
    <clipPath
       id="clipPath526"
       clipPathUnits="userSpaceOnUse">
      <path
         inkscape:connector-curvature="0"
         id="path524"
         d="M 0,0 H 612 V 792 H 0 Z" />
    </clipPath>
  </defs>
  <sodipodi:namedview
     id="base"
     pagecolor="#ffffff"
     bordercolor="#666666"
     borderopacity="1.0"
     inkscape:pageopacity="0.0"
     inkscape:pageshadow="2"
     inkscape:zoom="0.7"
     inkscape:cx="419.97302"
     inkscape:cy="-35.187354"
     inkscape:document-units="mm"
     inkscape:current-layer="layer1"
     showgrid="false"
     inkscape:window-width="1920"
     inkscape:window-height="1017"
     inkscape:window-x="-8"
     inkscape:window-y="-8"
     inkscape:window-maximized="1" />
  <metadata
     id="metadata3704">
    <rdf:RDF>
      <cc:Work
         rdf:about="">
        <dc:format>image/svg+xml</dc:format>
        <dc:type
           rdf:resource="http://purl.org/dc/dcmitype/StillImage" />
        <dc:title />
      </cc:Work>
    </rdf:RDF>
  </metadata>
  <g
     inkscape:label="Layer 1"
     inkscape:groupmode="layer"
     id="layer1"
     transform="translate(-1.6223444,-1.1167197)">
    <g
       transform="matrix(3.7372441,0,0,-3.7372441,-788.1332,537.823)"
       id="g520">
      <g
         clip-path="url(#clipPath526)"
         id="g522">
        <g
           transform="translate(241.0642,137.5283)"
           id="g528">
          <path
             inkscape:connector-curvature="0"
             id="path530"
             style="fill:#ffffff;fill-opacity:1;fill-rule:nonzero;stroke:none"
             d="m 0,0 c -0.714,-0.713 -1.873,-0.715 -2.588,0.002 -0.473,0.471 -0.625,1.137 -0.473,1.742 h -19.044 c 0.153,-0.605 0,-1.271 -0.473,-1.742 -0.714,-0.717 -1.873,-0.715 -2.588,-0.002 l -4.078,-3.441 v -1.704 -1.703 l 4.078,-3.441 c 0.715,0.715 1.874,0.715 2.588,-0.002 0.473,-0.471 0.626,-1.137 0.473,-1.74 h 19.044 c -0.152,0.603 0,1.269 0.473,1.74 0.715,0.717 1.874,0.717 2.588,0.002 l 4.079,3.441 v 1.703 1.704 z" />
        </g>
        <g
           transform="translate(238.6453,124.9971)"
           id="g532">
          <path
             inkscape:connector-curvature="0"
             id="path534"
             style="fill:#000000;fill-opacity:1;fill-rule:nonzero;stroke:none"
             d="m 0,0 h -20.329 l 0.158,0.623 c 0.117,0.461 -0.011,0.934 -0.341,1.262 -0.506,0.508 -1.38,0.506 -1.882,0.004 l -0.325,-0.327 -4.606,3.889 v 3.871 l 4.606,3.889 0.325,-0.326 c 0.502,-0.502 1.38,-0.5 1.88,0.002 0.332,0.33 0.46,0.802 0.343,1.265 l -0.158,0.623 H 0 l -0.157,-0.623 c -0.116,-0.463 0.011,-0.935 0.341,-1.263 0.505,-0.508 1.379,-0.504 1.881,-0.004 L 2.391,13.211 6.998,9.322 V 5.451 L 2.39,1.562 2.065,1.889 C 1.562,2.391 0.686,2.391 0.186,1.887 -0.146,1.557 -0.273,1.086 -0.157,0.621 Z m -19.131,1 h 17.932 c 0.009,0.596 0.244,1.164 0.678,1.594 0.766,0.769 2.048,0.886 2.934,0.297 l 3.585,3.025 v 2.941 l -3.586,3.026 c -0.884,-0.59 -2.166,-0.475 -2.935,0.299 -0.432,0.429 -0.667,0.998 -0.676,1.593 h -17.929 c -0.009,-0.595 -0.245,-1.164 -0.679,-1.595 -0.763,-0.77 -2.046,-0.887 -2.933,-0.297 L -26.325,8.857 V 5.916 l 3.585,-3.025 c 0.885,0.591 2.168,0.472 2.935,-0.299 C -19.38,2.17 -19.143,1.594 -19.131,1" />
        </g>
      </g>
    </g>
    <g
       transform="matrix(3.7372441,0,0,-3.7372441,203.19919,52.152905)"
       id="g536">
      <path
         inkscape:connector-curvature="0"
         id="path538"
         style="fill:#ffffff;fill-opacity:1;fill-rule:nonzero;stroke:none"
         d="m 0,0 -0.001,4.865 -6.536,8.229 H -36.064 L -42.602,4.865 -42.603,0 l 6.54,-8.232 h 29.522 z" />
    </g>
    <g
       transform="matrix(3.7372441,0,0,-3.7372441,179.76816,85.021587)"
       id="g540">
      <path
         inkscape:connector-curvature="0"
         id="path542"
         style="fill:#000000;fill-opacity:1;fill-rule:nonzero;stroke:none"
         d="m 0,0 h -30.064 l -6.832,8.598 10e-4,5.257 6.829,8.596 H 0.004 L 6.831,13.855 6.832,8.598 Z m -29.521,1.125 h 28.978 l 6.25,7.865 -10e-4,4.473 -6.245,7.863 H -29.523 L -35.77,13.463 -35.771,8.99 Z" />
    </g>
    <g
       transform="matrix(3.7372441,0,0,-3.7372441,51.297033,60.868149)"
       id="g552">
      <path
         inkscape:connector-curvature="0"
         id="path554"
         style="fill:#000000;fill-opacity:1;fill-rule:nonzero;stroke:none"
         d="m 0,0 -0.49,0.346 c 0.905,1.287 1.385,2.802 1.385,4.384 0,1.596 -0.488,3.124 -1.409,4.422 L -0.025,9.5 C 0.969,8.1 1.494,6.451 1.494,4.73 1.494,3.025 0.978,1.389 0,0" />
    </g>
    <g
       transform="matrix(3.7372441,0,0,-3.7372441,195.86709,60.868149)"
       id="g556">
      <path
         inkscape:connector-curvature="0"
         id="path558"
         style="fill:#000000;fill-opacity:1;fill-rule:nonzero;stroke:none"
         d="m 0,0 c -0.977,1.389 -1.493,3.023 -1.493,4.73 0,1.721 0.524,3.37 1.518,4.77 L 0.514,9.152 C -0.406,7.855 -0.894,6.326 -0.894,4.73 c 0,-1.582 0.479,-3.097 1.384,-4.384 z" />
    </g>
    <g
       transform="matrix(3.7372441,0,0,-3.7372441,54.778673,32.524888)"
       id="g560">
      <path
         inkscape:connector-curvature="0"
         id="path562"
         style="fill:#000000;fill-opacity:1;fill-rule:nonzero;stroke:none"
         d="m 0,0 -0.586,0.127 c 0.019,0.084 0.466,2.029 2.771,3.133 0.165,0.912 1.306,4.881 8.657,4.881 v -0.6 C 3.135,7.541 2.761,3.082 2.758,3.037 L 2.746,2.855 2.58,2.783 C 0.418,1.814 0.004,0.018 0,0" />
    </g>
    <g
       transform="matrix(3.7372441,0,0,-3.7372441,192.49087,32.524888)"
       id="g564">
      <path
         inkscape:connector-curvature="0"
         id="path566"
         style="fill:#000000;fill-opacity:1;fill-rule:nonzero;stroke:none"
         d="m 0,0 c -0.017,0.072 -0.432,1.822 -2.58,2.783 l -0.164,0.072 -0.013,0.18 c -0.014,0.186 -0.412,4.506 -8.085,4.506 v 0.6 c 7.351,0 8.492,-3.969 8.657,-4.881 C 0.12,2.156 0.567,0.211 0.586,0.127 Z" />
    </g>
    <g
       transform="matrix(3.7372441,0,0,-3.7372441,193.75743,43.072522)"
       id="g568">
      <path
         inkscape:connector-curvature="0"
         id="path570"
         style="fill:#ffffff;fill-opacity:1;fill-rule:nonzero;stroke:none"
         d="m 0,0 c 0.001,0.379 -0.311,0.691 -0.69,0.691 -0.384,0 -0.692,-0.312 -0.694,-0.691 0,-0.383 0.31,-0.693 0.694,-0.693 0.379,0 0.69,0.31 0.69,0.693" />
    </g>
    <g
       transform="matrix(3.7372441,0,0,-3.7372441,191.17722,46.598248)"
       id="g572">
      <path
         inkscape:connector-curvature="0"
         id="path574"
         style="fill:#000000;fill-opacity:1;fill-rule:nonzero;stroke:none"
         d="M 0,0 C -0.521,0 -0.943,0.422 -0.943,0.943 -0.94,1.463 -0.518,1.885 0,1.885 0.251,1.885 0.487,1.785 0.665,1.607 0.844,1.43 0.941,1.193 0.94,0.941 0.94,0.422 0.519,0 0,0 M 0,1.385 C -0.243,1.385 -0.442,1.186 -0.443,0.941 -0.443,0.699 -0.244,0.5 0,0.5 0.243,0.5 0.44,0.699 0.44,0.943 0.44,1.061 0.395,1.17 0.312,1.254 0.228,1.338 0.117,1.385 0,1.385" />
    </g>
    <g
       transform="matrix(3.7372441,0,0,-3.7372441,58.577936,43.072522)"
       id="g576">
      <path
         inkscape:connector-curvature="0"
         id="path578"
         style="fill:#ffffff;fill-opacity:1;fill-rule:nonzero;stroke:none"
         d="m 0,0 c 0.001,0.379 -0.311,0.691 -0.69,0.691 -0.384,0 -0.692,-0.312 -0.694,-0.691 0,-0.383 0.31,-0.693 0.694,-0.693 0.379,0 0.69,0.31 0.69,0.693" />
    </g>
    <g
       transform="matrix(3.7372441,0,0,-3.7372441,55.997751,46.598248)"
       id="g580">
      <path
         inkscape:connector-curvature="0"
         id="path582"
         style="fill:#000000;fill-opacity:1;fill-rule:nonzero;stroke:none"
         d="M 0,0 C -0.521,0 -0.943,0.422 -0.943,0.943 -0.94,1.463 -0.518,1.885 0,1.885 0.251,1.885 0.487,1.785 0.665,1.607 0.844,1.43 0.941,1.193 0.94,0.941 0.94,0.422 0.519,0 0,0 M 0,1.385 C -0.243,1.385 -0.442,1.186 -0.443,0.941 -0.443,0.699 -0.244,0.5 0,0.5 0.243,0.5 0.44,0.699 0.44,0.943 0.44,1.061 0.395,1.17 0.312,1.254 0.228,1.338 0.117,1.385 0,1.385" />
    </g>
    <g
       transform="matrix(3.7372441,0,0,-3.7372441,95.297118,84.04356)"
       id="g584">
      <path
         inkscape:connector-curvature="0"
         id="path586"
         style="fill:#000000;fill-opacity:1;fill-rule:nonzero;stroke:none"
         d="m 0,0 c -7.351,0 -8.492,3.969 -8.657,4.881 -2.305,1.103 -2.752,3.049 -2.771,3.133 l 0.586,0.129 c 0.017,-0.075 0.432,-1.823 2.58,-2.784 l 0.164,-0.074 0.013,-0.18 C -8.071,4.922 -7.673,0.6 0,0.6 Z" />
    </g>
    <g
       transform="matrix(3.7372441,0,0,-3.7372441,151.97243,84.04356)"
       id="g588">
      <path
         inkscape:connector-curvature="0"
         id="path590"
         style="fill:#000000;fill-opacity:1;fill-rule:nonzero;stroke:none"
         d="m 0,0 v 0.6 c 7.707,0 8.081,4.461 8.084,4.505 l 0.012,0.18 0.166,0.074 c 2.162,0.967 2.576,2.764 2.58,2.782 L 11.428,8.014 C 11.409,7.93 10.962,5.984 8.657,4.881 8.492,3.969 7.351,0 0,0" />
    </g>
  </g>
</svg>
