<?xml version="1.0" encoding="UTF-8" standalone="no"?>
<!-- Created with Inkscape (http://www.inkscape.org/) -->

<svg
   xmlns:dc="http://purl.org/dc/elements/1.1/"
   xmlns:cc="http://creativecommons.org/ns#"
   xmlns:rdf="http://www.w3.org/1999/02/22-rdf-syntax-ns#"
   xmlns:svg="http://www.w3.org/2000/svg"
   xmlns="http://www.w3.org/2000/svg"
   xmlns:sodipodi="http://sodipodi.sourceforge.net/DTD/sodipodi-0.dtd"
   xmlns:inkscape="http://www.inkscape.org/namespaces/inkscape"
   width="205.02719mm"
   height="84.460396mm"
   viewBox="0 0 205.02719 84.460396"
   version="1.1"
   id="svg3494"
   inkscape:version="0.92.3 (2405546, 2018-03-11)"
   sodipodi:docname="detail-2.svg">
  <defs
     id="defs3488">
    <clipPath
       id="clipPath818"
       clipPathUnits="userSpaceOnUse">
      <path
         inkscape:connector-curvature="0"
         id="path816"
         d="M 0,0 H 612 V 792 H 0 Z" />
    </clipPath>
    <clipPath
       id="clipPath794"
       clipPathUnits="userSpaceOnUse">
      <path
         inkscape:connector-curvature="0"
         id="path792"
         d="M 0,0 H 612 V 792 H 0 Z" />
    </clipPath>
    <clipPath
       id="clipPath774"
       clipPathUnits="userSpaceOnUse">
      <path
         inkscape:connector-curvature="0"
         id="path772"
         d="M 0,0 H 612 V 792 H 0 Z" />
    </clipPath>
  </defs>
  <sodipodi:namedview
     id="base"
     pagecolor="#ffffff"
     bordercolor="#666666"
     borderopacity="1.0"
     inkscape:pageopacity="0.0"
     inkscape:pageshadow="2"
     inkscape:zoom="0.49497475"
     inkscape:cx="1027.1434"
     inkscape:cy="1.7970939"
     inkscape:document-units="mm"
     inkscape:current-layer="layer1"
     showgrid="false"
     inkscape:window-width="1920"
     inkscape:window-height="1017"
     inkscape:window-x="-8"
     inkscape:window-y="-8"
     inkscape:window-maximized="1" />
  <metadata
     id="metadata3491">
    <rdf:RDF>
      <cc:Work
         rdf:about="">
        <dc:format>image/svg+xml</dc:format>
        <dc:type
           rdf:resource="http://purl.org/dc/dcmitype/StillImage" />
        <dc:title />
      </cc:Work>
    </rdf:RDF>
  </metadata>
  <g
     inkscape:label="Layer 1"
     inkscape:groupmode="layer"
     id="layer1"
     transform="translate(-1.3310879,-0.69823741)">
    <g
       transform="matrix(3.761988,0,0,-3.761988,113.22729,23.574142)"
       id="g752">
      <path
         inkscape:connector-curvature="0"
         id="path754"
         style="fill:#ffffff;fill-opacity:1;fill-rule:nonzero;stroke:none"
         d="m 0,0 c -0.714,-0.714 -1.873,-0.716 -2.588,0.002 -0.473,0.471 -0.625,1.137 -0.473,1.741 h -19.044 c 0.153,-0.604 0,-1.27 -0.473,-1.741 -0.714,-0.718 -1.873,-0.716 -2.588,-0.002 l -4.078,-3.442 v -1.703 -1.703 l 4.078,-3.442 c 0.715,0.715 1.874,0.716 2.588,-0.002 0.473,-0.47 0.626,-1.136 0.473,-1.74 h 19.044 c -0.152,0.604 0,1.27 0.473,1.74 0.715,0.718 1.874,0.717 2.588,0.002 l 4.079,3.442 v 1.703 1.703 z" />
    </g>
    <g
       transform="matrix(3.761988,0,0,-3.761988,104.12741,70.720496)"
       id="g756">
      <path
         inkscape:connector-curvature="0"
         id="path758"
         style="fill:#000000;fill-opacity:1;fill-rule:nonzero;stroke:none"
         d="m 0,0 h -20.329 l 0.158,0.623 c 0.117,0.462 -0.011,0.935 -0.341,1.263 -0.506,0.508 -1.38,0.505 -1.882,0.003 l -0.325,-0.326 -4.606,3.889 v 3.87 l 4.606,3.889 0.325,-0.325 c 0.502,-0.502 1.38,-0.502 1.88,0.001 0.332,0.331 0.46,0.803 0.343,1.265 l -0.158,0.623 H 0 L -0.157,14.153 C -0.273,13.69 -0.146,13.217 0.184,12.889 0.689,12.381 1.563,12.385 2.065,12.886 L 2.391,13.211 6.998,9.322 V 5.452 L 2.39,1.563 2.065,1.889 C 1.562,2.392 0.686,2.392 0.186,1.888 -0.146,1.558 -0.273,1.086 -0.157,0.622 Z m -19.131,1 h 17.932 c 0.009,0.596 0.244,1.164 0.678,1.595 0.766,0.768 2.048,0.885 2.934,0.297 l 3.585,3.025 v 2.94 l -3.586,3.027 c -0.884,-0.591 -2.166,-0.475 -2.935,0.298 -0.432,0.429 -0.667,0.998 -0.676,1.593 h -17.929 c -0.009,-0.594 -0.245,-1.164 -0.679,-1.595 -0.763,-0.769 -2.046,-0.887 -2.933,-0.296 l -3.585,-3.027 v -2.94 l 3.585,-3.026 c 0.885,0.59 2.168,0.474 2.935,-0.298 0.425,-0.422 0.662,-0.998 0.674,-1.593" />
    </g>
    <g
       transform="matrix(3.761988,0,0,-3.761988,204.24255,52.071936)"
       id="g760">
      <path
         inkscape:connector-curvature="0"
         id="path762"
         style="fill:#ffffff;fill-opacity:1;fill-rule:nonzero;stroke:none"
         d="m 0,0 -0.001,4.865 -6.536,8.229 H -36.064 L -42.602,4.865 -42.603,0 l 6.54,-8.232 h 29.522 z" />
    </g>
    <g
       transform="matrix(3.761988,0,0,-3.761988,180.65637,85.15863)"
       id="g764">
      <path
         inkscape:connector-curvature="0"
         id="path766"
         style="fill:#000000;fill-opacity:1;fill-rule:nonzero;stroke:none"
         d="m 0,0 h -30.064 l -6.832,8.599 10e-4,5.257 6.829,8.595 H 0.004 L 6.831,13.856 6.832,8.599 Z m -29.521,1.125 h 28.978 l 6.25,7.866 -10e-4,4.473 -6.245,7.862 h -28.984 l -6.247,-7.862 -10e-4,-4.473 z" />
    </g>
    <g
       transform="matrix(3.761988,0,0,-3.761988,-793.65336,638.60226)"
       id="g768">
      <g
         clip-path="url(#clipPath774)"
         id="g770">
        <g
           transform="translate(224.8884,158.3394)"
           id="g776">
          <path
             inkscape:connector-curvature="0"
             id="path778"
             style="fill:#000000;fill-opacity:1;fill-rule:nonzero;stroke:none"
             d="M 0,0 C -0.002,0.539 0.439,0.979 0.979,0.979 1.521,0.98 1.958,0.539 1.96,0 1.96,-0.541 1.521,-0.98 0.979,-0.98 0.439,-0.98 0,-0.541 0,0" />
        </g>
      </g>
    </g>
    <g
       transform="matrix(3.761988,0,0,-3.761988,76.580985,83.755022)"
       id="g780">
      <path
         inkscape:connector-curvature="0"
         id="path782"
         style="fill:#000000;fill-opacity:1;fill-rule:nonzero;stroke:none"
         d="M 0,0 -6.305,7.709 -5.84,8.088 0.465,0.379 Z" />
    </g>
    <g
       transform="matrix(3.761988,0,0,-3.761988,54.516164,32.54197)"
       id="g784">
      <path
         inkscape:connector-curvature="0"
         id="path786"
         style="fill:#000000;fill-opacity:1;fill-rule:nonzero;stroke:none"
         d="M 0,0 -0.463,0.381 5.869,8.093 6.332,7.712 Z" />
    </g>
    <g
       transform="matrix(3.761988,0,0,-3.761988,-793.65336,638.60226)"
       id="g788">
      <g
         clip-path="url(#clipPath794)"
         id="g790">
        <g
           transform="translate(224.6121,153.5786)"
           id="g796">
          <path
             inkscape:connector-curvature="0"
             id="path798"
             style="fill:#000000;fill-opacity:1;fill-rule:nonzero;stroke:none"
             d="m 0,0 -0.49,0.346 c 0.905,1.287 1.385,2.802 1.385,4.383 0,1.596 -0.488,3.125 -1.409,4.422 l 0.489,0.348 C 0.969,8.1 1.494,6.45 1.494,4.729 1.494,3.024 0.978,1.389 0,0" />
        </g>
        <g
           transform="translate(263.0193,158.3394)"
           id="g800">
          <path
             inkscape:connector-curvature="0"
             id="path802"
             style="fill:#000000;fill-opacity:1;fill-rule:nonzero;stroke:none"
             d="M 0,0 C 0.002,0.539 -0.439,0.979 -0.979,0.979 -1.521,0.98 -1.957,0.539 -1.959,0 c 0,-0.541 0.438,-0.98 0.98,-0.98 C -0.439,-0.98 0,-0.541 0,0" />
        </g>
      </g>
    </g>
    <g
       transform="matrix(3.761988,0,0,-3.761988,171.61144,83.758804)"
       id="g804">
      <path
         inkscape:connector-curvature="0"
         id="path806"
         style="fill:#000000;fill-opacity:1;fill-rule:nonzero;stroke:none"
         d="M 0,0 -0.463,0.381 5.87,8.098 6.333,7.717 Z" />
    </g>
    <g
       transform="matrix(3.761988,0,0,-3.761988,193.69505,32.508845)"
       id="g808">
      <path
         inkscape:connector-curvature="0"
         id="path810"
         style="fill:#000000;fill-opacity:1;fill-rule:nonzero;stroke:none"
         d="M 0,0 -6.336,7.703 -5.873,8.084 0.463,0.381 Z" />
    </g>
    <g
       transform="matrix(3.761988,0,0,-3.761988,-793.65336,638.60226)"
       id="g812">
      <g
         clip-path="url(#clipPath818)"
         id="g814">
        <g
           transform="translate(263.2957,153.5786)"
           id="g820">
          <path
             inkscape:connector-curvature="0"
             id="path822"
             style="fill:#000000;fill-opacity:1;fill-rule:nonzero;stroke:none"
             d="m 0,0 c -0.977,1.388 -1.493,3.023 -1.493,4.729 0,1.722 0.524,3.371 1.518,4.77 L 0.514,9.151 c -0.92,-1.297 -1.408,-2.826 -1.408,-4.422 0,-1.582 0.479,-3.097 1.384,-4.383 z" />
        </g>
      </g>
    </g>
  </g>
</svg>
