<?xml version="1.0" encoding="UTF-8" standalone="no"?>
<!-- Created with Inkscape (http://www.inkscape.org/) -->

<svg
   xmlns:dc="http://purl.org/dc/elements/1.1/"
   xmlns:cc="http://creativecommons.org/ns#"
   xmlns:rdf="http://www.w3.org/1999/02/22-rdf-syntax-ns#"
   xmlns:svg="http://www.w3.org/2000/svg"
   xmlns="http://www.w3.org/2000/svg"
   xmlns:sodipodi="http://sodipodi.sourceforge.net/DTD/sodipodi-0.dtd"
   xmlns:inkscape="http://www.inkscape.org/namespaces/inkscape"
   width="135.46666mm"
   height="135.46666mm"
   viewBox="0 0 135.46666 135.46666"
   version="1.1"
   id="svg8"
   inkscape:version="0.92.3 (2405546, 2018-03-11)"
   sodipodi:docname="d20.svg">
  <defs
     id="defs2">
    <filter
       y="-1"
       x="-1"
       width="3"
       height="3"
       id="shadow-1">
      <feFlood
         id="feFlood84"
         result="flood"
         flood-color="rgba(245, 25, 25, 1)" />
      <feComposite
         id="feComposite86"
         result="composite"
         operator="atop"
         in2="SourceGraphic"
         in="flood" />
      <feGaussianBlur
         id="feGaussianBlur88"
         result="blur"
         stdDeviation="15"
         in="composite" />
      <feOffset
         id="feOffset90"
         result="offset"
         dy="0"
         dx="0" />
      <feComposite
         id="feComposite92"
         operator="over"
         in2="offset"
         in="SourceGraphic" />
    </filter>
  </defs>
  <sodipodi:namedview
     id="base"
     pagecolor="#ffffff"
     bordercolor="#666666"
     borderopacity="1.0"
     inkscape:pageopacity="0.0"
     inkscape:pageshadow="2"
     inkscape:zoom="0.7"
     inkscape:cx="756.17284"
     inkscape:cy="536.28967"
     inkscape:document-units="mm"
     inkscape:current-layer="layer1"
     showgrid="false"
     inkscape:window-width="1920"
     inkscape:window-height="1017"
     inkscape:window-x="-8"
     inkscape:window-y="-8"
     inkscape:window-maximized="1" />
  <metadata
     id="metadata5">
    <rdf:RDF>
      <cc:Work
         rdf:about="">
        <dc:format>image/svg+xml</dc:format>
        <dc:type
           rdf:resource="http://purl.org/dc/dcmitype/StillImage" />
        <dc:title></dc:title>
      </cc:Work>
    </rdf:RDF>
  </metadata>
  <g
     inkscape:label="Layer 1"
     inkscape:groupmode="layer"
     id="layer1"
     transform="translate(-6.0411157,-7.1549424)">
    <g
       id="g118"
       transform="matrix(0.26458333,0,0,0.26458333,6.0411157,7.1549424)">
      <circle
         id="circle97"
         r="256"
         cy="256"
         cx="256"
         style="fill:#000000;fill-opacity:1" />
      <g
         id="g101"
         transform="translate(3,-4)"
         class="">
        <path
           id="path99"
           d="M 248,20.27 72.33,132.598 248,128.775 Z m 16,0 v 108.505 l 175.67,3.823 z m -22.131,124.641 -186.48,4.06 71.23,192.93 z m 28.26,0 115.25,196.99 71.23,-192.93 z m -14.13,7.53 -117.076,200.11 H 373.075 Z M 52,185.98 v 173.266 l 61.86,-5.703 z m 408,0 -61.86,167.563 61.86,5.703 z M 143.154,368.554 256,491.73 368.846,368.553 Z m -21.394,0.33 -53.797,4.96 c 140.844,90.057 3.076045,1.97009 140.844,90.057 z m 268.48,0 c -35.32691,41.55269 -48.61845,54.07767 -87.047,95.017 140.842,-90.058 83.35123,-53.43639 140.842,-90.058 z"
           inkscape:connector-curvature="0"
           style="fill:#ffffff;fill-opacity:1;filter:url(#shadow-1)"
           sodipodi:nodetypes="cccccccccccccccccccccccccccccccccccccccc" />
      </g>
    </g>
  </g>
</svg>
